<svg id="svg" version="1.1" xmlns="http://www.w3.org/2000/svg" xmlns:xlink="http://www.w3.org/1999/xlink" width="400" height="400" viewBox="0, 0, 400,400"><g id="svgg"><path id="path0" d="M108.658 309.107 C 107.734 310.601,109.892 314.990,114.591 321.177 C 135.810 349.114,147.056 358.432,163.240 361.490 C 173.163 363.364,241.817 361.919,287.762 358.868 L 291.800 358.600 291.903 333.700 L 292.006 308.800 200.427 308.800 C 150.058 308.800,108.762 308.938,108.658 309.107 " stroke="none" fill="#83cbf3" fill-rule="evenodd"></path><path id="path1" d="M195.400 41.768 C 189.469 42.721,176.400 47.618,176.400 48.886 C 176.400 49.085,176.220 49.136,176.000 49.000 C 175.780 48.864,175.600 48.973,175.600 49.243 C 175.600 49.513,175.483 49.616,175.340 49.473 C 175.196 49.330,174.881 49.470,174.640 49.784 C 174.398 50.099,173.937 50.411,173.616 50.478 C 173.294 50.545,172.671 50.919,172.230 51.310 C 171.789 51.700,171.187 51.927,170.893 51.814 C 170.562 51.687,170.468 51.786,170.645 52.073 C 170.843 52.393,170.699 52.447,170.178 52.247 C 169.763 52.088,169.553 52.086,169.710 52.243 C 170.126 52.660,168.482 53.698,167.937 53.361 C 167.684 53.205,167.580 53.244,167.707 53.449 C 168.024 53.962,152.937 62.132,152.346 61.767 C 152.079 61.602,151.983 61.648,152.122 61.874 C 152.365 62.267,137.868 70.133,136.900 70.133 C 136.625 70.133,136.490 70.223,136.599 70.333 C 136.825 70.558,124.118 77.528,104.600 87.884 C 97.340 91.737,89.532 95.994,87.249 97.344 L 83.097 99.800 132.049 100.042 C 158.972 100.175,199.275 100.310,221.610 100.342 C 268.557 100.409,268.556 100.409,275.200 103.551 C 280.678 106.142,281.070 105.789,277.202 101.749 C 273.867 98.265,223.959 48.081,223.854 48.105 C 223.304 48.232,222.056 47.424,222.258 47.071 C 222.407 46.812,222.388 46.727,222.216 46.881 C 221.880 47.185,217.167 44.959,216.745 44.297 C 216.604 44.077,216.289 44.021,216.045 44.172 C 215.800 44.324,215.600 44.302,215.600 44.124 C 215.600 43.946,215.110 43.772,214.512 43.737 C 213.914 43.702,213.362 43.487,213.286 43.259 C 213.210 43.031,212.890 42.944,212.574 43.065 C 212.258 43.186,212.000 43.098,212.000 42.868 C 212.000 42.638,211.685 42.443,211.300 42.434 C 210.396 42.413,209.159 42.174,208.400 41.873 C 208.070 41.742,207.350 41.619,206.800 41.600 C 206.250 41.580,204.180 41.495,202.200 41.409 C 200.220 41.323,197.160 41.485,195.400 41.768 M83.702 191.058 C 83.805 273.215,83.872 281.182,84.473 283.107 C 86.744 290.379,91.333 296.827,107.575 315.568 C 111.659 320.280,116.118 325.432,117.485 327.016 C 118.852 328.600,119.842 330.038,119.685 330.212 C 119.528 330.386,119.605 330.411,119.855 330.269 C 120.105 330.126,120.555 330.311,120.855 330.681 C 121.323 331.259,121.316 331.307,120.800 331.024 C 120.470 330.843,122.537 333.058,125.394 335.947 C 130.046 340.651,132.008 342.464,130.323 340.500 C 114.888 322.508,109.037 314.406,108.729 310.600 L 108.600 309.000 200.306 308.899 L 292.012 308.798 291.906 333.799 C 291.848 347.550,291.921 358.800,292.068 358.800 C 292.373 358.800,292.543 358.044,293.370 353.000 C 295.807 338.138,295.611 311.805,293.042 308.815 C 292.751 308.477,292.307 307.586,292.055 306.835 C 289.863 300.310,282.575 292.183,259.200 270.202 C 253.370 264.719,241.310 253.106,232.400 244.394 C 223.490 235.682,211.795 224.334,206.411 219.177 C 190.131 203.583,184.396 198.023,159.400 173.602 C 119.950 135.059,91.320 107.589,85.660 102.850 L 83.588 101.115 83.702 191.058 M273.507 359.890 C 274.226 359.979,275.306 359.977,275.907 359.886 C 276.508 359.795,275.920 359.722,274.600 359.724 C 273.280 359.726,272.788 359.801,273.507 359.890 M260.600 360.417 C 248.006 361.135,208.689 362.321,193.000 362.457 L 186.200 362.516 191.400 362.883 C 202.965 363.699,247.688 362.273,268.200 360.434 L 271.800 360.112 268.800 360.116 C 267.150 360.118,263.460 360.254,260.600 360.417 " stroke="none" fill="#44a4f3" fill-rule="evenodd"></path><path id="path2" d="M242.401 66.230 C 283.981 108.225,281.587 105.716,279.800 105.421 C 278.920 105.276,276.880 104.538,275.266 103.782 C 268.486 100.605,267.969 100.590,154.692 100.255 L 82.384 100.041 81.366 101.653 C 80.807 102.540,79.209 105.906,77.817 109.133 C 76.424 112.360,71.746 122.560,67.422 131.800 C 63.097 141.040,59.185 149.410,58.727 150.400 C 57.784 152.441,44.671 180.392,39.398 191.600 C 24.200 223.909,26.074 228.756,74.806 283.200 C 89.978 300.150,117.610 328.964,118.134 328.381 C 118.224 328.282,115.151 324.600,111.305 320.200 C 87.773 293.279,84.540 288.315,83.576 277.628 C 83.289 274.451,83.259 246.020,83.479 186.938 L 83.800 100.876 87.200 103.888 C 93.912 109.835,129.580 144.111,156.600 170.579 C 182.167 195.623,188.508 201.780,203.385 216.000 C 210.635 222.930,224.224 236.079,233.583 245.221 C 242.943 254.362,255.232 266.206,260.894 271.540 C 283.061 292.422,288.378 298.311,291.852 305.830 L 293.224 308.800 321.731 308.800 L 350.238 308.800 350.682 306.300 C 355.354 279.995,356.100 274.417,357.809 253.000 C 363.079 186.965,351.044 161.288,287.240 102.439 C 264.963 81.892,235.152 56.043,227.000 50.206 C 226.120 49.576,233.050 56.787,242.401 66.230 M91.000 94.181 C 87.582 95.858,85.320 97.244,84.400 98.227 L 83.000 99.721 84.800 98.516 C 85.790 97.853,88.805 96.092,91.500 94.601 C 94.195 93.110,96.400 91.825,96.400 91.745 C 96.400 91.526,96.548 91.459,91.000 94.181 M283.200 359.437 C 252.612 362.251,209.703 364.089,194.000 363.257 C 173.553 362.175,171.714 362.269,180.000 363.974 C 200.538 368.201,225.579 368.018,262.400 363.373 C 274.860 361.800,292.848 358.884,290.000 358.898 C 289.450 358.901,286.390 359.143,283.200 359.437 " stroke="none" fill="#1464c4" fill-rule="evenodd"></path><path id="path3" d="M216.833 44.552 C 217.241 44.924,221.200 46.793,221.200 46.613 C 221.200 46.388,217.380 44.400,216.947 44.400 C 216.793 44.400,216.742 44.468,216.833 44.552 M221.600 46.979 C 221.600 47.089,222.140 47.459,222.800 47.800 C 223.460 48.141,224.000 48.331,224.000 48.221 C 224.000 48.111,223.460 47.741,222.800 47.400 C 222.140 47.059,221.600 46.869,221.600 46.979 M171.200 51.636 C 170.536 52.179,170.469 52.315,171.000 52.040 C 172.305 51.366,173.028 50.812,172.600 50.815 C 172.380 50.817,171.750 51.186,171.200 51.636 M231.400 55.600 C 233.592 57.800,235.475 59.600,235.585 59.600 C 235.695 59.600,233.992 57.800,231.800 55.600 C 229.608 53.400,227.725 51.600,227.615 51.600 C 227.505 51.600,229.208 53.400,231.400 55.600 M277.200 101.800 C 279.060 103.670,280.672 105.200,280.782 105.200 C 280.892 105.200,279.460 103.670,277.600 101.800 C 275.740 99.930,274.128 98.400,274.018 98.400 C 273.908 98.400,275.340 99.930,277.200 101.800 M163.900 100.295 C 165.055 100.376,166.945 100.376,168.100 100.295 C 169.255 100.214,168.310 100.148,166.000 100.148 C 163.690 100.148,162.745 100.214,163.900 100.295 M99.200 115.325 C 99.200 115.394,99.785 115.979,100.500 116.625 L 101.800 117.800 100.625 116.500 C 99.530 115.288,99.200 115.016,99.200 115.325 M110.000 125.725 C 110.000 125.794,110.585 126.379,111.300 127.025 L 112.600 128.200 111.425 126.900 C 110.330 125.688,110.000 125.416,110.000 125.725 M122.000 137.400 C 122.746 138.170,123.447 138.800,123.557 138.800 C 123.667 138.800,123.146 138.170,122.400 137.400 C 121.654 136.630,120.953 136.000,120.843 136.000 C 120.733 136.000,121.254 136.630,122.000 137.400 M133.200 148.200 C 133.946 148.970,134.647 149.600,134.757 149.600 C 134.867 149.600,134.346 148.970,133.600 148.200 C 132.854 147.430,132.153 146.800,132.043 146.800 C 131.933 146.800,132.454 147.430,133.200 148.200 M147.000 161.600 C 148.306 162.920,149.465 164.000,149.575 164.000 C 149.685 164.000,148.706 162.920,147.400 161.600 C 146.094 160.280,144.935 159.200,144.825 159.200 C 144.715 159.200,145.694 160.280,147.000 161.600 M164.000 178.200 C 165.195 179.410,166.263 180.400,166.373 180.400 C 166.483 180.400,165.595 179.410,164.400 178.200 C 163.205 176.990,162.137 176.000,162.027 176.000 C 161.917 176.000,162.805 176.990,164.000 178.200 M183.800 197.600 C 184.659 198.480,185.452 199.200,185.562 199.200 C 185.672 199.200,185.059 198.480,184.200 197.600 C 183.341 196.720,182.548 196.000,182.438 196.000 C 182.328 196.000,182.941 196.720,183.800 197.600 M194.000 207.325 C 194.000 207.394,194.585 207.979,195.300 208.625 L 196.600 209.800 195.425 208.500 C 194.330 207.288,194.000 207.016,194.000 207.325 M202.800 215.725 C 202.800 215.794,203.385 216.379,204.100 217.025 L 205.400 218.200 204.225 216.900 C 203.130 215.688,202.800 215.416,202.800 215.725 M213.800 226.400 C 214.659 227.280,215.452 228.000,215.562 228.000 C 215.672 228.000,215.059 227.280,214.200 226.400 C 213.341 225.520,212.548 224.800,212.438 224.800 C 212.328 224.800,212.941 225.520,213.800 226.400 M226.800 239.000 C 228.660 240.870,230.272 242.400,230.382 242.400 C 230.492 242.400,229.060 240.870,227.200 239.000 C 225.340 237.130,223.728 235.600,223.618 235.600 C 223.508 235.600,224.940 237.130,226.800 239.000 M246.800 258.525 C 246.800 258.594,247.385 259.179,248.100 259.825 L 249.400 261.000 248.225 259.700 C 247.130 258.488,246.800 258.216,246.800 258.525 M268.800 279.325 C 268.800 279.394,269.385 279.979,270.100 280.625 L 271.400 281.800 270.225 280.500 C 269.130 279.288,268.800 279.016,268.800 279.325 " stroke="none" fill="#3c9cec" fill-rule="evenodd"></path><path id="path4" d="M226.000 50.200 C 226.746 50.970,227.447 51.600,227.557 51.600 C 227.667 51.600,227.146 50.970,226.400 50.200 C 225.654 49.430,224.953 48.800,224.843 48.800 C 224.733 48.800,225.254 49.430,226.000 50.200 M169.100 52.629 C 167.605 53.440,167.696 53.778,169.200 53.000 C 169.860 52.659,170.400 52.294,170.400 52.190 C 170.400 51.932,170.357 51.947,169.100 52.629 M165.897 54.366 C 164.085 55.528,164.086 55.756,165.900 54.841 C 166.835 54.370,167.600 53.897,167.600 53.792 C 167.600 53.449,167.023 53.644,165.897 54.366 M161.900 56.629 C 160.405 57.440,160.496 57.778,162.000 57.000 C 162.660 56.659,163.200 56.294,163.200 56.190 C 163.200 55.932,163.157 55.947,161.900 56.629 M157.389 58.945 C 156.955 59.245,154.440 60.620,151.800 62.001 C 149.160 63.381,146.820 64.693,146.600 64.916 C 146.133 65.388,158.015 59.275,158.580 58.752 C 159.192 58.185,158.274 58.334,157.389 58.945 M247.400 71.600 C 253.997 78.200,259.485 83.600,259.595 83.600 C 259.705 83.600,254.397 78.200,247.800 71.600 C 241.203 65.000,235.715 59.600,235.605 59.600 C 235.495 59.600,240.803 65.000,247.400 71.600 M143.500 66.426 C 142.235 67.079,141.200 67.703,141.200 67.812 C 141.200 67.922,142.280 67.466,143.600 66.800 C 144.920 66.134,146.000 65.501,146.000 65.394 C 146.000 65.128,146.074 65.097,143.500 66.426 M131.900 72.629 C 130.349 73.470,130.525 73.761,132.100 72.959 C 133.608 72.193,133.875 71.994,133.367 72.016 C 133.165 72.025,132.505 72.301,131.900 72.629 M129.100 74.229 C 127.605 75.040,127.696 75.378,129.200 74.600 C 129.860 74.259,130.400 73.894,130.400 73.790 C 130.400 73.532,130.357 73.547,129.100 74.229 M124.300 76.827 C 123.475 77.263,122.800 77.708,122.800 77.818 C 122.800 77.927,123.520 77.649,124.400 77.200 C 125.280 76.751,126.000 76.297,126.000 76.192 C 126.000 75.930,125.997 75.931,124.300 76.827 M120.300 79.029 C 118.805 79.840,118.896 80.178,120.400 79.400 C 121.060 79.059,121.600 78.694,121.600 78.590 C 121.600 78.332,121.557 78.347,120.300 79.029 M109.300 84.883 C 106.825 86.231,104.860 87.393,104.933 87.466 C 105.050 87.583,113.932 82.958,114.367 82.555 C 115.057 81.914,113.115 82.806,109.300 84.883 M100.700 89.426 C 99.655 89.970,98.800 90.505,98.800 90.614 C 98.800 90.793,102.760 88.923,103.167 88.552 C 103.662 88.101,102.361 88.562,100.700 89.426 M97.100 91.429 C 95.605 92.240,95.696 92.578,97.200 91.800 C 97.860 91.459,98.400 91.094,98.400 90.990 C 98.400 90.732,98.357 90.747,97.100 91.429 M133.100 100.300 C 138.435 100.363,147.165 100.363,152.500 100.300 C 157.835 100.237,153.470 100.185,142.800 100.185 C 132.130 100.185,127.765 100.237,133.100 100.300 M244.100 100.699 C 247.565 100.766,253.235 100.766,256.700 100.699 C 260.165 100.633,257.330 100.578,250.400 100.578 C 243.470 100.578,240.635 100.633,244.100 100.699 M90.000 106.525 C 90.000 106.594,90.585 107.179,91.300 107.825 L 92.600 109.000 91.425 107.700 C 90.330 106.488,90.000 106.216,90.000 106.525 M97.400 113.600 C 98.259 114.480,99.052 115.200,99.162 115.200 C 99.272 115.200,98.659 114.480,97.800 113.600 C 96.941 112.720,96.148 112.000,96.038 112.000 C 95.928 112.000,96.541 112.720,97.400 113.600 M107.600 123.400 C 108.795 124.610,109.863 125.600,109.973 125.600 C 110.083 125.600,109.195 124.610,108.000 123.400 C 106.805 122.190,105.737 121.200,105.627 121.200 C 105.517 121.200,106.405 122.190,107.600 123.400 M118.000 133.400 C 119.417 134.830,120.667 136.000,120.777 136.000 C 120.887 136.000,119.817 134.830,118.400 133.400 C 116.983 131.970,115.733 130.800,115.623 130.800 C 115.513 130.800,116.583 131.970,118.000 133.400 M129.200 144.200 C 130.617 145.630,131.867 146.800,131.977 146.800 C 132.087 146.800,131.017 145.630,129.600 144.200 C 128.183 142.770,126.933 141.600,126.823 141.600 C 126.713 141.600,127.783 142.770,129.200 144.200 M141.200 155.800 C 143.060 157.670,144.672 159.200,144.782 159.200 C 144.892 159.200,143.460 157.670,141.600 155.800 C 139.740 153.930,138.128 152.400,138.018 152.400 C 137.908 152.400,139.340 153.930,141.200 155.800 M158.000 172.200 C 160.081 174.290,161.874 176.000,161.984 176.000 C 162.094 176.000,160.481 174.290,158.400 172.200 C 156.319 170.110,154.526 168.400,154.416 168.400 C 154.306 168.400,155.919 170.110,158.000 172.200 M178.800 192.600 C 180.660 194.470,182.272 196.000,182.382 196.000 C 182.492 196.000,181.060 194.470,179.200 192.600 C 177.340 190.730,175.728 189.200,175.618 189.200 C 175.508 189.200,176.940 190.730,178.800 192.600 M191.400 204.800 C 192.706 206.120,193.865 207.200,193.975 207.200 C 194.085 207.200,193.106 206.120,191.800 204.800 C 190.494 203.480,189.335 202.400,189.225 202.400 C 189.115 202.400,190.094 203.480,191.400 204.800 M200.783 213.700 C 202.441 215.466,202.800 215.784,202.800 215.483 C 202.800 215.419,201.945 214.564,200.900 213.583 L 199.000 211.800 200.783 213.700 M83.390 246.000 C 83.390 262.610,83.439 269.405,83.500 261.100 C 83.560 252.795,83.560 239.205,83.500 230.900 C 83.439 222.595,83.390 229.390,83.390 246.000 M209.800 222.400 C 211.106 223.720,212.265 224.800,212.375 224.800 C 212.485 224.800,211.506 223.720,210.200 222.400 C 208.894 221.080,207.735 220.000,207.625 220.000 C 207.515 220.000,208.494 221.080,209.800 222.400 M220.800 233.000 C 222.217 234.430,223.467 235.600,223.577 235.600 C 223.687 235.600,222.617 234.430,221.200 233.000 C 219.783 231.570,218.533 230.400,218.423 230.400 C 218.313 230.400,219.383 231.570,220.800 233.000 M241.600 253.400 C 244.343 256.150,246.678 258.400,246.788 258.400 C 246.898 258.400,244.743 256.150,242.000 253.400 C 239.257 250.650,236.922 248.400,236.812 248.400 C 236.702 248.400,238.857 250.650,241.600 253.400 M252.600 264.000 C 253.459 264.880,254.252 265.600,254.362 265.600 C 254.472 265.600,253.859 264.880,253.000 264.000 C 252.141 263.120,251.348 262.400,251.238 262.400 C 251.128 262.400,251.741 263.120,252.600 264.000 M259.183 270.100 C 260.164 271.145,261.019 272.000,261.083 272.000 C 261.384 272.000,261.066 271.641,259.300 269.983 L 257.400 268.200 259.183 270.100 M266.400 277.000 C 267.595 278.210,268.663 279.200,268.773 279.200 C 268.883 279.200,267.995 278.210,266.800 277.000 C 265.605 275.790,264.537 274.800,264.427 274.800 C 264.317 274.800,265.205 275.790,266.400 277.000 M277.400 287.600 C 278.928 289.140,280.269 290.400,280.379 290.400 C 280.489 290.400,279.328 289.140,277.800 287.600 C 276.272 286.060,274.931 284.800,274.821 284.800 C 274.711 284.800,275.872 286.060,277.400 287.600 M272.900 360.276 C 273.285 360.376,273.915 360.376,274.300 360.276 C 274.685 360.175,274.370 360.093,273.600 360.093 C 272.830 360.093,272.515 360.175,272.900 360.276 M255.900 361.482 C 256.395 361.578,257.205 361.578,257.700 361.482 C 258.195 361.387,257.790 361.309,256.800 361.309 C 255.810 361.309,255.405 361.387,255.900 361.482 M249.105 361.883 C 249.602 361.979,250.322 361.975,250.705 361.875 C 251.087 361.775,250.680 361.696,249.800 361.701 C 248.920 361.705,248.607 361.787,249.105 361.883 M241.305 362.287 C 241.914 362.379,242.814 362.377,243.305 362.282 C 243.797 362.187,243.300 362.111,242.200 362.114 C 241.100 362.117,240.697 362.195,241.305 362.287 M181.491 362.689 C 182.201 362.777,183.461 362.779,184.291 362.692 C 185.121 362.605,184.540 362.533,183.000 362.531 C 181.460 362.529,180.781 362.600,181.491 362.689 M232.100 362.687 C 232.705 362.778,233.695 362.778,234.300 362.687 C 234.905 362.595,234.410 362.520,233.200 362.520 C 231.990 362.520,231.495 362.595,232.100 362.687 M190.300 363.082 C 190.795 363.178,191.605 363.178,192.100 363.082 C 192.595 362.987,192.190 362.909,191.200 362.909 C 190.210 362.909,189.805 362.987,190.300 363.082 M221.900 363.089 C 222.615 363.178,223.785 363.178,224.500 363.089 C 225.215 363.001,224.630 362.928,223.200 362.928 C 221.770 362.928,221.185 363.001,221.900 363.089 M201.521 363.499 C 203.788 363.570,207.388 363.570,209.521 363.498 C 211.655 363.426,209.800 363.368,205.400 363.368 C 201.000 363.368,199.255 363.427,201.521 363.499 " stroke="none" fill="#3491e4" fill-rule="evenodd"></path></g></svg>