<svg id="svg" version="1.1" xmlns="http://www.w3.org/2000/svg" xmlns:xlink="http://www.w3.org/1999/xlink" width="400" height="400" viewBox="0, 0, 400,400"><g id="svgg"><path id="path0" d="M126.200 124.501 C 114.872 127.050,106.973 136.101,104.821 149.000 C 103.964 154.139,103.912 157.279,104.529 166.631 C 104.725 169.601,103.925 170.135,100.699 169.190 C 99.156 168.738,95.941 167.992,95.864 168.069 C 95.837 168.096,95.595 169.745,95.325 171.734 C 94.668 176.584,94.777 176.452,91.100 176.796 C 89.890 176.910,88.279 177.102,87.520 177.224 L 86.140 177.446 86.269 179.973 C 86.588 186.215,88.221 192.860,90.606 197.613 C 92.286 200.960,91.948 201.614,87.955 202.745 L 87.409 202.900 88.444 205.200 C 104.412 240.707,137.166 268.578,176.120 279.804 C 218.582 292.042,256.462 286.043,284.600 262.625 C 299.728 250.035,310.821 231.780,313.209 215.543 C 313.534 213.335,313.734 210.200,313.550 210.200 C 313.522 210.200,312.870 210.333,312.100 210.497 C 308.153 211.333,307.493 210.780,307.332 206.500 C 307.278 205.070,307.119 203.419,306.978 202.830 L 306.722 201.760 306.011 201.879 C 301.979 202.553,298.761 202.463,297.976 201.655 C 297.787 201.460,297.163 199.860,296.590 198.100 C 292.568 185.745,287.623 176.019,282.213 169.818 L 281.618 169.137 280.759 169.828 C 263.286 183.882,237.438 188.671,214.639 182.078 C 195.998 176.687,182.090 167.454,161.201 146.600 C 149.117 134.537,141.370 127.600,138.183 125.992 C 135.069 124.419,129.591 123.738,126.200 124.501 M157.850 125.149 C 159.143 125.184,161.258 125.184,162.550 125.149 C 163.843 125.115,162.785 125.086,160.200 125.086 C 157.615 125.086,156.558 125.115,157.850 125.149 M171.653 125.344 C 171.957 125.389,172.407 125.388,172.653 125.341 C 172.899 125.293,172.650 125.256,172.100 125.257 C 171.550 125.259,171.349 125.298,171.653 125.344 M154.400 134.263 C 154.400 134.297,154.692 134.590,155.050 134.913 L 155.700 135.500 155.113 134.850 C 154.565 134.244,154.400 134.108,154.400 134.263 M164.600 144.300 C 167.954 147.655,170.743 150.400,170.798 150.400 C 170.853 150.400,168.154 147.655,164.800 144.300 C 161.446 140.945,158.657 138.200,158.602 138.200 C 158.547 138.200,161.246 140.945,164.600 144.300 M156.885 180.403 C 167.859 182.097,176.545 185.924,193.078 196.351 C 199.670 200.509,200.451 200.932,201.879 201.128 C 204.422 201.477,206.648 199.527,207.792 195.948 C 208.175 194.750,209.443 194.395,210.337 195.235 C 211.562 196.385,210.115 199.969,207.079 203.304 C 203.775 206.934,200.331 208.304,196.700 207.433 L 195.700 207.193 194.106 208.705 C 179.897 222.181,152.741 216.594,147.720 199.161 C 145.215 190.463,148.533 180.661,154.200 180.016 C 154.255 180.009,155.463 180.184,156.885 180.403 M283.908 196.709 C 291.766 198.744,291.075 211.840,282.736 218.933 C 273.661 226.653,260.052 224.476,253.007 214.177 L 252.113 212.871 250.599 212.884 C 246.102 212.922,242.000 207.566,242.000 201.659 C 242.000 197.802,244.753 197.924,245.194 201.800 C 245.444 203.990,246.169 205.719,247.038 206.195 C 247.788 206.605,248.171 206.484,256.125 203.322 C 270.981 197.416,279.140 195.474,283.908 196.709 M285.450 205.300 C 285.453 205.740,285.494 205.896,285.541 205.648 C 285.589 205.399,285.587 205.039,285.537 204.848 C 285.487 204.656,285.448 204.860,285.450 205.300 M174.050 212.147 C 174.572 212.188,175.428 212.188,175.950 212.147 C 176.472 212.106,176.045 212.072,175.000 212.072 C 173.955 212.072,173.528 212.106,174.050 212.147 M232.500 212.661 C 245.252 215.083,254.581 222.037,257.023 230.939 C 259.930 241.533,248.505 249.757,239.918 243.252 C 238.082 241.860,237.577 241.961,234.214 244.390 C 232.005 245.985,229.704 246.198,224.300 245.306 C 218.537 244.354,217.802 243.761,217.801 240.055 C 217.800 237.014,217.813 237.024,214.399 237.749 C 202.506 240.273,194.593 235.245,197.180 226.807 C 199.681 218.648,207.244 213.751,219.400 212.416 C 221.968 212.134,230.575 212.295,232.500 212.661 M179.378 228.812 C 181.763 229.362,183.611 230.683,185.739 233.356 C 192.758 242.178,202.360 248.477,212.500 250.909 C 219.161 252.506,231.810 252.998,241.184 252.023 C 250.505 251.053,253.138 252.104,254.501 257.336 C 256.412 264.672,251.162 271.794,241.352 275.174 C 212.301 285.185,178.367 272.779,167.248 248.082 C 162.520 237.581,169.477 226.530,179.378 228.812 M177.050 245.938 C 177.243 245.988,177.558 245.988,177.750 245.938 C 177.942 245.888,177.785 245.846,177.400 245.846 C 177.015 245.846,176.858 245.888,177.050 245.938 M218.552 275.541 C 218.801 275.589,219.161 275.587,219.352 275.537 C 219.544 275.487,219.340 275.448,218.900 275.450 C 218.460 275.453,218.304 275.494,218.552 275.541 M223.650 275.538 C 223.843 275.588,224.157 275.588,224.350 275.538 C 224.543 275.488,224.385 275.446,224.000 275.446 C 223.615 275.446,223.457 275.488,223.650 275.538 " stroke="none" fill="#535353" fill-rule="evenodd"></path><path id="path1" d="M178.500 114.593 C 177.400 114.677,176.123 114.810,175.662 114.888 L 174.824 115.031 176.785 116.508 C 182.039 120.466,182.726 123.914,178.500 125.120 C 178.170 125.214,171.735 125.294,164.200 125.299 C 151.181 125.306,145.846 125.496,145.366 125.968 C 145.292 126.041,146.074 126.798,147.103 127.651 C 151.073 130.942,155.612 135.196,163.800 143.301 C 185.433 164.716,199.504 173.854,218.161 178.606 C 238.967 183.905,263.092 179.081,278.479 166.544 L 279.057 166.072 278.300 163.786 C 274.947 153.661,269.987 140.600,269.495 140.600 C 269.461 140.600,269.060 140.938,268.605 141.350 C 266.913 142.885,265.810 143.167,264.985 142.277 C 263.730 140.924,256.996 135.288,253.500 132.665 C 241.924 123.981,231.303 118.688,221.472 116.705 L 220.845 116.578 221.938 118.739 C 225.172 125.131,222.232 126.762,214.365 122.941 C 201.714 116.798,188.840 113.801,178.500 114.593 M153.511 185.224 C 151.204 187.966,150.631 193.911,152.216 198.670 C 156.357 211.102,176.198 216.235,188.700 208.108 C 190.197 207.135,194.655 202.722,194.565 202.302 C 194.529 202.133,193.015 201.105,191.200 200.017 L 187.900 198.037 187.000 199.776 C 183.173 207.166,175.889 210.361,167.743 208.222 C 158.687 205.843,154.424 195.240,159.075 186.659 L 159.747 185.417 158.724 185.217 C 154.610 184.409,154.195 184.410,153.511 185.224 M278.500 200.694 C 278.390 200.728,277.396 200.912,276.290 201.104 L 274.281 201.452 274.364 204.407 C 274.497 209.080,273.670 211.886,271.507 214.102 C 268.961 216.709,263.930 217.763,260.400 216.428 L 259.300 216.012 260.000 216.603 C 266.049 221.713,276.835 220.464,282.007 214.054 C 285.638 209.555,286.535 202.696,283.717 200.978 C 283.156 200.635,279.354 200.428,278.500 200.694 M219.700 216.608 C 213.582 217.562,209.892 221.411,213.386 223.193 C 216.556 224.810,228.358 224.686,231.350 223.004 C 236.594 220.057,227.965 215.319,219.700 216.608 M180.398 232.748 C 180.394 233.167,179.602 241.225,179.486 242.024 L 179.353 242.948 180.519 243.094 C 182.031 243.283,183.966 243.897,184.600 244.389 L 185.100 244.777 185.200 250.338 L 185.300 255.900 186.300 256.165 C 188.962 256.871,193.609 256.669,197.936 255.658 C 200.917 254.961,200.783 254.864,202.877 259.221 C 203.770 261.078,204.605 262.598,204.733 262.599 C 205.144 262.601,208.634 261.208,210.837 260.164 C 213.646 258.831,213.418 258.734,216.551 262.578 L 219.144 265.758 220.439 265.212 C 222.112 264.506,223.731 263.424,225.138 262.072 C 227.023 260.261,227.130 260.285,230.426 263.274 L 232.751 265.383 234.538 263.641 C 235.520 262.684,236.615 261.473,236.971 260.952 C 238.146 259.227,239.146 259.378,240.614 261.501 C 241.184 262.325,241.718 263.000,241.802 263.000 C 242.785 263.000,247.400 256.399,247.400 254.993 C 247.400 254.697,244.969 254.798,240.100 255.294 C 232.077 256.113,221.359 255.779,214.200 254.488 C 202.676 252.410,191.508 245.558,183.579 235.700 C 182.048 233.796,180.403 232.270,180.398 232.748 M175.700 246.394 C 174.670 246.806,172.106 248.641,171.732 249.235 C 171.347 249.846,174.987 255.300,177.771 258.286 C 191.543 273.052,216.381 279.197,237.499 273.064 C 239.896 272.367,243.370 271.107,243.646 270.833 C 243.726 270.754,243.021 269.791,242.079 268.694 C 241.138 267.597,239.967 266.144,239.477 265.465 L 238.586 264.230 237.043 265.737 C 232.686 269.994,232.818 269.971,229.655 267.000 C 226.934 264.443,227.282 264.566,225.911 265.683 C 223.896 267.324,219.878 269.211,218.436 269.194 C 217.707 269.185,217.618 269.097,215.020 265.850 C 213.766 264.282,212.675 263.000,212.595 263.000 C 212.515 263.000,211.768 263.311,210.936 263.690 C 208.815 264.657,204.113 266.400,203.627 266.400 C 202.868 266.400,202.247 265.501,200.677 262.135 C 199.181 258.925,199.086 258.776,198.605 258.883 C 192.603 260.215,186.422 260.071,183.178 258.525 C 182.045 257.985,182.000 257.734,182.000 251.911 L 182.000 246.641 180.650 246.405 C 178.107 245.961,176.791 245.958,175.700 246.394 " stroke="none" fill="#fafaf3" fill-rule="evenodd"></path><path id="path2" d="M177.400 110.010 C 171.780 110.700,165.335 112.782,164.315 114.240 C 163.390 115.560,164.014 116.644,166.631 118.263 C 167.666 118.903,168.869 119.741,169.306 120.126 L 170.100 120.827 168.300 120.714 C 157.302 120.027,147.065 120.573,142.237 122.102 L 140.773 122.566 139.237 121.778 C 127.756 115.892,112.510 121.274,104.898 133.900 C 100.530 141.145,98.595 152.147,99.868 162.500 C 100.190 165.118,100.304 164.890,98.863 164.516 C 93.183 163.045,92.424 163.505,91.636 168.900 L 91.085 172.679 88.392 173.024 C 81.853 173.861,81.833 173.883,82.193 179.820 C 82.598 186.486,83.923 192.514,86.105 197.613 L 86.776 199.179 85.438 199.920 C 82.196 201.715,82.200 201.770,86.198 210.119 C 102.431 244.009,134.567 271.431,171.482 282.891 C 203.165 292.727,233.630 292.648,259.000 282.664 C 292.208 269.595,317.475 238.232,317.676 209.834 L 317.700 206.368 317.047 205.784 C 316.206 205.032,315.523 205.034,313.600 205.794 C 311.419 206.655,311.481 206.684,311.331 204.739 C 311.067 201.304,309.914 198.239,308.660 197.641 C 308.064 197.357,307.812 197.366,305.556 197.757 C 300.595 198.615,301.097 198.819,300.004 195.500 C 295.948 183.174,290.213 172.304,284.853 166.778 L 283.183 165.057 282.306 161.578 C 279.109 148.905,274.563 138.434,270.398 134.150 C 268.725 132.429,267.967 132.471,265.886 134.400 C 264.036 136.116,264.440 136.169,261.864 133.866 C 248.595 122.008,233.179 113.886,220.940 112.305 C 213.280 111.315,211.300 112.182,212.880 115.835 C 213.742 117.830,213.806 117.763,211.881 116.882 C 199.860 111.378,187.055 108.826,177.400 110.010 M187.158 114.604 C 196.155 115.547,205.934 118.562,215.447 123.325 C 220.019 125.615,221.048 124.287,218.722 119.100 L 217.467 116.300 218.227 116.239 C 219.296 116.153,223.105 116.867,225.956 117.687 C 236.500 120.722,249.969 128.825,261.700 139.190 C 264.000 141.223,264.283 141.227,266.536 139.262 C 268.310 137.715,268.052 137.602,269.584 140.593 C 271.728 144.779,276.677 157.876,279.084 165.735 C 279.338 166.565,273.181 170.604,267.100 173.596 C 240.724 186.576,211.812 182.463,184.220 161.805 C 177.728 156.945,174.108 153.691,163.400 143.095 C 155.185 134.965,150.708 130.772,146.722 127.473 L 144.822 125.900 145.461 125.767 C 148.254 125.187,159.082 124.908,168.366 125.177 C 176.626 125.416,176.700 125.408,177.198 124.206 C 177.822 122.698,175.300 119.418,171.390 116.653 C 170.420 115.966,170.416 115.871,171.350 115.607 C 175.086 114.551,182.293 114.094,187.158 114.604 M135.259 124.876 C 138.361 125.806,139.639 126.622,144.500 130.773 C 148.819 134.462,153.228 138.640,161.201 146.600 C 182.090 167.454,195.998 176.687,214.639 182.078 C 237.438 188.671,263.286 183.882,280.759 169.828 L 281.618 169.137 282.213 169.818 C 287.623 176.019,292.568 185.745,296.590 198.100 C 297.163 199.860,297.787 201.460,297.976 201.655 C 298.761 202.463,301.979 202.553,306.011 201.879 L 306.722 201.760 306.978 202.830 C 307.119 203.419,307.278 205.070,307.332 206.500 C 307.493 210.780,308.153 211.333,312.100 210.497 C 312.870 210.333,313.522 210.200,313.550 210.200 C 313.734 210.200,313.534 213.335,313.209 215.543 C 310.821 231.780,299.728 250.035,284.600 262.625 C 256.462 286.043,218.582 292.042,176.120 279.804 C 137.166 268.578,104.412 240.707,88.444 205.200 L 87.409 202.900 87.955 202.745 C 91.948 201.614,92.286 200.960,90.606 197.613 C 88.221 192.860,86.588 186.215,86.269 179.973 L 86.140 177.446 87.520 177.224 C 88.279 177.102,89.890 176.910,91.100 176.796 C 94.777 176.452,94.668 176.584,95.325 171.734 C 95.595 169.745,95.837 168.096,95.864 168.069 C 95.941 167.992,99.156 168.738,100.699 169.190 C 103.925 170.135,104.725 169.601,104.529 166.631 C 103.912 157.279,103.964 154.139,104.821 149.000 C 107.617 132.242,121.949 120.883,135.259 124.876 M153.188 180.273 C 148.149 181.632,145.403 191.116,147.720 199.161 C 152.741 216.594,179.897 222.181,194.106 208.705 L 195.700 207.193 196.700 207.433 C 200.331 208.304,203.775 206.934,207.079 203.304 C 210.115 199.969,211.562 196.385,210.337 195.235 C 209.443 194.395,208.175 194.750,207.792 195.948 C 206.648 199.527,204.422 201.477,201.879 201.128 C 200.451 200.932,199.670 200.509,193.078 196.351 C 178.649 187.252,171.194 183.671,161.985 181.418 C 159.969 180.924,154.643 179.965,154.200 180.016 C 154.145 180.022,153.689 180.138,153.188 180.273 M157.225 184.819 C 160.211 185.325,159.999 185.112,159.152 186.744 C 154.721 195.290,158.710 205.578,167.387 207.983 C 175.931 210.351,183.891 206.800,187.209 199.141 C 187.822 197.725,187.437 197.644,191.416 200.027 C 195.296 202.351,195.083 202.041,193.828 203.540 C 181.773 217.934,154.739 213.396,151.482 196.432 C 150.670 192.204,151.807 186.325,153.728 184.814 C 154.370 184.309,154.208 184.308,157.225 184.819 M278.118 196.620 C 272.845 197.176,267.449 198.820,256.125 203.322 C 248.171 206.484,247.788 206.605,247.038 206.195 C 246.169 205.719,245.444 203.990,245.194 201.800 C 244.753 197.924,242.000 197.802,242.000 201.659 C 242.000 207.566,246.102 212.922,250.599 212.884 L 252.113 212.871 253.007 214.177 C 261.618 226.765,279.235 226.658,286.905 213.971 C 290.074 208.729,290.229 201.880,287.250 198.676 C 285.364 196.647,282.972 196.108,278.118 196.620 M283.402 200.724 C 286.157 201.827,286.208 207.245,283.507 212.111 C 278.983 220.263,266.516 222.507,259.600 216.415 L 258.700 215.622 259.949 216.119 C 264.918 218.094,270.799 216.159,272.984 211.832 C 274.132 209.558,274.696 204.843,274.140 202.165 L 273.988 201.430 275.444 201.110 C 278.899 200.351,282.083 200.197,283.402 200.724 M219.400 212.416 C 207.244 213.751,199.681 218.648,197.180 226.807 C 194.593 235.245,202.506 240.273,214.399 237.749 C 217.813 237.024,217.800 237.014,217.801 240.055 C 217.802 243.761,218.537 244.354,224.300 245.306 C 229.704 246.198,232.005 245.985,234.214 244.390 C 237.577 241.961,238.082 241.860,239.918 243.252 C 247.179 248.752,257.441 243.627,257.448 234.497 C 257.456 224.476,247.133 215.441,232.500 212.661 C 230.575 212.295,221.968 212.134,219.400 212.416 M227.200 216.812 C 232.226 217.794,234.410 220.420,232.040 222.631 C 230.610 223.965,228.223 224.392,222.200 224.392 C 214.879 224.392,212.000 223.579,212.000 221.510 C 212.000 217.685,219.621 215.330,227.200 216.812 M174.253 228.908 C 166.733 230.933,163.505 239.770,167.248 248.082 C 178.367 272.779,212.301 285.185,241.352 275.174 C 251.162 271.794,256.412 264.672,254.501 257.336 C 253.138 252.104,250.505 251.053,241.184 252.023 C 231.810 252.998,219.161 252.506,212.500 250.909 C 202.360 248.477,192.758 242.178,185.739 233.356 C 182.455 229.229,178.602 227.737,174.253 228.908 M181.731 233.344 C 181.968 233.540,182.727 234.420,183.418 235.300 C 190.570 244.415,200.729 251.107,211.500 253.797 C 218.231 255.478,232.162 256.054,241.631 255.042 C 246.440 254.527,247.600 254.491,247.600 254.855 C 247.600 255.775,245.322 259.650,243.880 261.183 C 241.691 263.509,241.808 263.491,240.604 261.706 C 239.226 259.664,238.165 259.430,237.157 260.947 C 236.593 261.796,233.017 265.400,232.739 265.400 C 232.639 265.400,231.735 264.654,230.729 263.741 C 227.060 260.414,227.004 260.397,225.255 262.118 C 223.622 263.726,220.249 265.800,219.269 265.800 C 219.135 265.800,217.892 264.413,216.506 262.719 C 213.342 258.851,213.544 258.943,211.000 260.212 C 209.409 261.006,205.008 262.800,204.651 262.800 C 204.552 262.800,203.765 261.338,202.902 259.550 C 200.661 254.908,200.920 255.086,197.582 255.895 C 193.467 256.891,188.225 257.015,185.810 256.173 L 185.200 255.961 185.200 250.771 C 185.200 244.999,185.144 244.704,183.938 244.131 C 183.159 243.762,180.940 243.209,180.200 243.200 C 179.214 243.188,179.175 243.055,179.483 240.788 C 179.639 239.640,179.877 237.287,180.011 235.559 L 180.255 232.418 180.777 232.703 C 181.065 232.859,181.494 233.148,181.731 233.344 M179.500 246.104 C 180.600 246.269,181.658 246.455,181.850 246.516 C 182.172 246.618,182.200 247.060,182.200 252.027 C 182.200 258.032,182.188 257.974,183.542 258.555 C 186.699 259.909,192.254 260.085,197.285 258.991 C 198.266 258.777,199.098 258.631,199.132 258.666 C 199.167 258.700,199.952 260.301,200.877 262.222 C 202.765 266.146,202.882 266.295,203.970 266.149 C 204.544 266.072,210.777 263.690,212.514 262.884 C 212.632 262.829,213.752 264.071,215.003 265.642 C 216.254 267.214,217.412 268.613,217.577 268.750 C 218.556 269.567,222.899 267.925,225.735 265.665 C 227.380 264.354,226.901 264.214,229.637 266.800 C 232.793 269.783,233.234 269.683,237.639 264.995 L 238.578 263.996 239.227 264.939 C 239.584 265.458,240.805 266.986,241.941 268.335 L 244.007 270.788 243.254 271.172 C 242.839 271.383,241.724 271.829,240.775 272.163 C 214.830 281.307,183.285 271.278,171.777 250.227 L 171.300 249.353 172.200 248.573 C 173.569 247.387,174.452 246.816,175.733 246.289 C 177.122 245.718,176.986 245.725,179.500 246.104 " stroke="none" fill="#161616" fill-rule="evenodd"></path><path id="path3" d="M269.350 219.941 C 269.598 219.989,270.002 219.989,270.250 219.941 C 270.498 219.893,270.295 219.854,269.800 219.854 C 269.305 219.854,269.103 219.893,269.350 219.941 M182.087 251.800 C 182.087 254.715,182.115 255.907,182.149 254.450 C 182.184 252.993,182.184 250.607,182.149 249.150 C 182.115 247.693,182.087 248.885,182.087 251.800 M228.346 255.744 C 228.701 255.789,229.331 255.789,229.746 255.746 C 230.160 255.703,229.870 255.667,229.100 255.666 C 228.330 255.665,227.990 255.700,228.346 255.744 M231.146 255.744 C 231.501 255.789,232.131 255.789,232.546 255.746 C 232.960 255.703,232.670 255.667,231.900 255.666 C 231.130 255.665,230.790 255.700,231.146 255.744 M190.253 256.744 C 190.557 256.789,191.007 256.788,191.253 256.741 C 191.499 256.693,191.250 256.656,190.700 256.657 C 190.150 256.659,189.949 256.698,190.253 256.744 M220.557 275.548 C 221.138 275.588,222.038 275.588,222.557 275.547 C 223.076 275.506,222.600 275.473,221.500 275.473 C 220.400 275.474,219.976 275.507,220.557 275.548 " stroke="none" fill="#929281" fill-rule="evenodd"></path><path id="path4" d="M179.450 114.538 C 179.643 114.588,179.958 114.588,180.150 114.538 C 180.343 114.488,180.185 114.446,179.800 114.446 C 179.415 114.446,179.258 114.488,179.450 114.538 M183.552 114.541 C 183.801 114.589,184.161 114.587,184.352 114.537 C 184.544 114.487,184.340 114.448,183.900 114.450 C 183.460 114.453,183.304 114.494,183.552 114.541 M172.600 115.417 C 171.665 115.628,170.826 115.825,170.735 115.855 C 170.644 115.885,171.004 116.221,171.535 116.601 C 175.861 119.699,178.178 123.245,176.882 124.785 C 176.297 125.480,176.294 125.479,177.913 125.182 C 181.709 124.486,182.282 122.013,179.404 118.736 C 178.626 117.849,174.890 114.992,174.541 115.017 C 174.409 115.026,173.535 115.206,172.600 115.417 M217.600 116.264 C 217.600 116.311,218.185 117.666,218.900 119.277 C 220.440 122.747,220.468 123.007,219.413 124.011 C 218.518 124.862,218.642 124.992,220.356 124.997 C 223.443 125.007,224.010 122.888,222.002 118.848 C 221.319 117.473,220.828 116.726,220.537 116.618 C 220.034 116.431,217.600 116.138,217.600 116.264 M152.250 125.338 C 152.442 125.388,152.758 125.388,152.950 125.338 C 153.143 125.288,152.985 125.246,152.600 125.246 C 152.215 125.246,152.058 125.288,152.250 125.338 M168.650 125.343 C 168.953 125.389,169.447 125.389,169.750 125.343 C 170.053 125.297,169.805 125.260,169.200 125.260 C 168.595 125.260,168.347 125.297,168.650 125.343 M156.400 136.063 C 156.400 136.097,156.692 136.390,157.050 136.713 L 157.700 137.300 157.113 136.650 C 156.565 136.044,156.400 135.908,156.400 136.063 M266.400 139.500 C 265.185 140.589,264.834 140.800,264.233 140.800 L 263.515 140.800 264.500 141.800 C 265.823 143.143,266.491 143.125,268.204 141.700 C 269.490 140.630,269.512 140.544,268.798 139.296 C 268.024 137.944,268.147 137.934,266.400 139.500 M233.653 180.944 C 233.957 180.989,234.407 180.988,234.653 180.941 C 234.899 180.893,234.650 180.856,234.100 180.857 C 233.550 180.859,233.349 180.898,233.653 180.944 M237.550 180.941 C 237.798 180.989,238.203 180.989,238.450 180.941 C 238.697 180.893,238.495 180.854,238.000 180.854 C 237.505 180.854,237.303 180.893,237.550 180.941 M280.750 200.541 C 280.998 200.589,281.403 200.589,281.650 200.541 C 281.897 200.493,281.695 200.454,281.200 200.454 C 280.705 200.454,280.502 200.493,280.750 200.541 M192.091 205.250 L 191.300 206.100 192.150 205.309 C 192.940 204.574,193.092 204.400,192.941 204.400 C 192.908 204.400,192.525 204.783,192.091 205.250 M219.350 224.341 C 219.597 224.389,220.003 224.389,220.250 224.341 C 220.498 224.293,220.295 224.254,219.800 224.254 C 219.305 224.254,219.103 224.293,219.350 224.341 M224.150 224.341 C 224.398 224.389,224.803 224.389,225.050 224.341 C 225.298 224.293,225.095 224.254,224.600 224.254 C 224.105 224.254,223.903 224.293,224.150 224.341 M187.000 239.663 C 187.000 239.697,187.293 239.990,187.650 240.313 L 188.300 240.900 187.713 240.250 C 187.165 239.644,187.000 239.508,187.000 239.663 M245.900 254.701 C 246.367 254.864,247.600 254.907,247.600 254.760 C 247.600 254.672,247.173 254.607,246.650 254.616 C 246.128 254.624,245.790 254.663,245.900 254.701 M226.752 255.741 C 227.001 255.789,227.361 255.787,227.552 255.737 C 227.744 255.687,227.540 255.648,227.100 255.650 C 226.660 255.653,226.504 255.694,226.752 255.741 M233.552 255.741 C 233.801 255.789,234.161 255.787,234.352 255.737 C 234.544 255.687,234.340 255.648,233.900 255.650 C 233.460 255.653,233.304 255.694,233.552 255.741 M177.600 258.263 C 177.600 258.297,177.893 258.590,178.250 258.913 L 178.900 259.500 178.313 258.850 C 177.765 258.244,177.600 258.108,177.600 258.263 M179.400 260.063 C 179.400 260.097,179.692 260.390,180.050 260.713 L 180.700 261.300 180.113 260.650 C 179.565 260.044,179.400 259.908,179.400 260.063 " stroke="none" fill="#a4a499" fill-rule="evenodd"></path></g></svg>