<svg id="svg" version="1.1" xmlns="http://www.w3.org/2000/svg" xmlns:xlink="http://www.w3.org/1999/xlink" width="400" height="400" viewBox="0, 0, 400,400"><g id="svgg"><path id="path0" d="M155.200 49.536 C 139.608 51.149,130.770 66.297,132.789 87.944 C 133.188 92.221,132.768 92.638,129.100 91.613 C 124.315 90.276,124.780 90.058,124.314 93.862 C 123.743 98.520,123.815 98.435,120.094 98.799 C 118.777 98.928,117.260 99.115,116.723 99.216 C 116.185 99.317,115.705 99.400,115.655 99.400 C 115.523 99.400,115.777 102.540,116.124 105.200 C 116.755 110.040,117.916 114.163,119.722 117.979 C 121.231 121.169,121.049 121.971,118.657 122.687 C 118.021 122.877,117.381 123.070,117.236 123.115 C 116.629 123.306,120.371 131.093,123.956 137.100 C 140.593 164.976,167.733 185.786,199.610 195.108 C 242.324 207.599,281.125 199.925,307.133 173.841 C 319.370 161.569,327.703 145.284,328.534 132.018 L 328.665 129.936 328.182 130.081 C 324.013 131.333,322.914 130.688,322.747 126.889 C 322.685 125.465,322.527 123.817,322.395 123.226 L 322.156 122.152 321.228 122.287 C 317.379 122.851,314.666 122.766,313.983 122.060 C 313.791 121.862,313.095 120.080,312.437 118.100 C 308.753 107.016,303.842 97.325,299.551 92.670 C 298.563 91.598,298.655 91.595,297.146 92.770 C 278.063 107.623,250.791 110.622,226.819 100.503 C 212.521 94.468,202.846 87.349,185.595 70.171 C 168.751 53.398,164.791 50.363,158.771 49.608 C 157.138 49.403,156.592 49.392,155.200 49.536 M192.950 50.541 C 193.197 50.589,193.603 50.589,193.850 50.541 C 194.097 50.493,193.895 50.454,193.400 50.454 C 192.905 50.454,192.703 50.493,192.950 50.541 M183.700 63.000 C 184.464 63.770,185.134 64.400,185.189 64.400 C 185.244 64.400,184.664 63.770,183.900 63.000 C 183.136 62.230,182.466 61.600,182.411 61.600 C 182.356 61.600,182.936 62.230,183.700 63.000 M192.000 71.300 C 192.597 71.905,193.131 72.400,193.186 72.400 C 193.241 72.400,192.797 71.905,192.200 71.300 C 191.603 70.695,191.069 70.200,191.014 70.200 C 190.959 70.200,191.403 70.695,192.000 71.300 M182.200 102.206 C 192.526 103.883,200.896 107.627,216.541 117.563 C 225.124 123.015,227.008 122.973,229.294 117.280 C 229.826 115.957,230.429 115.464,231.261 115.672 C 233.503 116.235,232.118 120.301,228.427 123.991 C 224.964 127.454,222.477 128.290,218.580 127.303 C 218.165 127.198,217.961 127.286,217.575 127.736 C 206.985 140.068,182.063 137.424,174.705 123.188 C 170.720 115.478,172.650 103.816,178.194 102.107 C 179.387 101.739,179.316 101.738,182.200 102.206 M253.750 102.741 C 253.998 102.789,254.403 102.789,254.650 102.741 C 254.898 102.693,254.695 102.654,254.200 102.654 C 253.705 102.654,253.503 102.693,253.750 102.741 M257.352 102.741 C 257.601 102.789,257.961 102.787,258.152 102.737 C 258.344 102.687,258.140 102.648,257.700 102.650 C 257.260 102.653,257.104 102.694,257.352 102.741 M301.131 117.498 C 305.896 118.913,307.416 125.922,304.318 132.191 C 297.915 145.146,280.549 146.134,272.046 134.027 L 271.011 132.554 269.456 132.519 C 266.948 132.463,265.284 131.334,263.426 128.429 C 261.107 124.803,260.835 119.600,262.965 119.600 C 263.851 119.600,264.329 120.293,264.484 121.800 C 264.747 124.377,265.466 126.007,266.517 126.406 C 267.076 126.619,268.328 126.215,272.900 124.344 C 287.670 118.300,296.567 116.143,301.131 117.498 M297.650 120.943 C 297.953 120.989,298.447 120.989,298.750 120.943 C 299.053 120.897,298.805 120.860,298.200 120.860 C 297.595 120.860,297.348 120.897,297.650 120.943 M186.100 124.800 C 186.530 125.240,186.926 125.600,186.981 125.600 C 187.036 125.600,186.730 125.240,186.300 124.800 C 185.870 124.360,185.474 124.000,185.419 124.000 C 185.364 124.000,185.670 124.360,186.100 124.800 M214.800 125.500 C 214.314 125.995,213.962 126.400,214.017 126.400 C 214.072 126.400,214.514 125.995,215.000 125.500 C 215.486 125.005,215.838 124.600,215.783 124.600 C 215.728 124.600,215.286 125.005,214.800 125.500 M180.600 124.863 C 180.600 124.897,180.893 125.190,181.250 125.513 L 181.900 126.100 181.313 125.450 C 180.765 124.844,180.600 124.708,180.600 124.863 M249.700 132.011 C 262.542 133.119,273.661 140.798,275.789 150.028 C 277.989 159.569,267.412 166.853,259.739 161.081 C 258.949 160.487,258.181 160.000,258.034 160.000 C 257.562 160.000,255.184 161.276,254.393 161.953 C 252.691 163.409,251.560 163.605,247.285 163.185 C 240.433 162.512,238.860 161.573,238.955 158.212 C 239.003 156.532,238.957 156.191,238.628 155.784 L 238.244 155.311 235.872 155.792 C 223.271 158.348,216.124 152.629,220.411 143.421 C 224.205 135.269,235.674 130.801,249.700 132.011 M234.287 138.650 L 233.700 139.300 234.350 138.713 C 234.956 138.165,235.092 138.000,234.937 138.000 C 234.903 138.000,234.610 138.292,234.287 138.650 M239.952 143.341 C 240.201 143.389,240.561 143.387,240.752 143.337 C 240.944 143.287,240.740 143.248,240.300 143.250 C 239.860 143.253,239.704 143.294,239.952 143.341 M245.650 143.338 C 245.843 143.388,246.157 143.388,246.350 143.338 C 246.543 143.288,246.385 143.246,246.000 143.246 C 245.615 143.246,245.457 143.288,245.650 143.338 M203.800 147.719 C 205.618 148.332,207.141 149.527,208.889 151.713 C 216.500 161.234,227.140 167.484,238.115 168.881 C 245.075 169.768,253.438 169.939,259.200 169.312 C 269.655 168.176,272.373 169.244,273.423 174.900 C 275.910 188.304,254.635 197.119,229.800 192.976 C 212.017 190.009,195.642 177.721,190.892 163.779 C 187.617 154.167,195.143 144.803,203.800 147.719 M140.500 164.800 C 140.930 165.240,141.326 165.600,141.381 165.600 C 141.436 165.600,141.130 165.240,140.700 164.800 C 140.270 164.360,139.874 164.000,139.819 164.000 C 139.764 164.000,140.070 164.360,140.500 164.800 M246.250 172.538 C 246.443 172.588,246.757 172.588,246.950 172.538 C 247.143 172.488,246.985 172.446,246.600 172.446 C 246.215 172.446,246.058 172.488,246.250 172.538 M254.650 172.538 C 254.843 172.588,255.157 172.588,255.350 172.538 C 255.543 172.488,255.385 172.446,255.000 172.446 C 254.615 172.446,254.457 172.488,254.650 172.538 M202.500 176.400 C 203.264 177.170,203.934 177.800,203.989 177.800 C 204.044 177.800,203.464 177.170,202.700 176.400 C 201.936 175.630,201.266 175.000,201.211 175.000 C 201.156 175.000,201.736 175.630,202.500 176.400 M254.892 179.850 L 253.900 180.900 254.950 179.908 C 255.528 179.362,256.000 178.889,256.000 178.858 C 256.000 178.708,255.815 178.874,254.892 179.850 M256.994 181.750 L 255.700 183.100 257.011 181.844 C 257.732 181.154,258.399 180.659,258.493 180.744 C 258.587 180.830,258.599 180.788,258.520 180.650 C 258.329 180.318,258.453 180.228,256.994 181.750 M250.900 184.000 C 251.442 184.550,251.930 185.000,251.985 185.000 C 252.040 185.000,251.642 184.550,251.100 184.000 C 250.558 183.450,250.070 183.000,250.015 183.000 C 249.960 183.000,250.358 183.450,250.900 184.000 M181.107 197.608 C 178.108 201.708,175.549 203.211,168.500 205.015 C 166.607 205.499,165.655 205.853,165.000 206.317 C 164.505 206.668,162.705 207.785,161.000 208.801 C 148.449 216.279,140.464 225.687,134.210 240.366 C 126.135 259.316,124.262 286.985,130.298 298.133 C 130.587 298.665,130.765 298.920,130.696 298.700 C 129.217 294.039,129.178 292.964,130.470 292.509 C 131.516 292.141,132.035 292.667,132.544 294.607 C 133.506 298.270,134.938 301.920,136.533 304.772 C 137.598 306.676,137.675 306.313,137.555 299.995 C 137.446 294.348,137.467 294.186,138.358 293.817 C 139.266 293.441,139.874 293.816,140.924 295.395 C 141.440 296.170,141.890 296.777,141.925 296.742 C 142.003 296.663,142.834 288.466,143.500 281.200 C 144.998 264.867,148.022 253.564,154.405 240.447 C 158.239 232.567,159.347 231.316,161.015 232.985 C 161.856 233.825,161.767 234.378,160.420 236.682 C 155.052 245.866,150.454 258.265,148.325 269.300 C 147.637 272.870,147.319 275.355,146.498 283.600 C 145.031 298.340,144.499 302.436,144.001 302.840 C 142.981 303.665,141.849 303.166,141.203 301.608 C 140.743 300.496,140.600 300.975,140.594 303.650 C 140.578 310.316,140.028 310.980,136.137 309.029 C 135.072 308.494,134.200 308.073,134.200 308.092 C 134.200 308.111,133.800 309.741,133.311 311.714 C 130.242 324.095,127.871 337.226,127.301 345.000 C 127.124 347.412,127.018 347.601,125.341 348.485 C 120.790 350.887,116.389 355.435,114.730 359.451 L 114.419 360.203 128.547 360.151 L 142.675 360.100 143.138 356.900 C 146.285 335.181,147.491 331.293,151.694 329.310 C 158.905 325.908,167.335 324.419,177.149 324.814 C 191.808 325.403,197.477 327.128,199.490 331.613 C 200.680 334.265,201.001 336.137,202.587 349.649 C 203.217 355.011,203.799 359.466,203.882 359.549 C 203.965 359.632,208.278 359.761,213.467 359.835 C 218.655 359.909,225.038 360.009,227.650 360.056 C 233.014 360.153,232.737 360.252,231.872 358.543 C 229.973 354.788,226.853 351.956,222.094 349.668 C 219.134 348.244,219.399 348.821,218.873 342.665 C 216.666 316.833,216.203 294.833,217.207 263.500 C 217.619 250.635,218.197 236.441,218.321 236.118 C 218.522 235.595,219.546 235.156,220.221 235.305 C 221.557 235.598,221.527 235.101,221.026 248.574 C 220.778 255.243,220.489 263.040,220.385 265.900 C 220.074 274.455,219.914 300.937,220.175 300.691 C 220.691 300.207,221.667 297.087,222.316 293.856 C 222.559 292.645,224.317 292.160,225.171 293.069 C 225.751 293.687,225.972 295.104,226.133 299.256 C 226.278 302.990,226.299 303.024,227.430 301.387 C 232.564 293.956,234.420 267.694,231.098 249.475 C 227.686 230.753,221.681 219.486,210.230 210.319 C 206.993 207.728,206.743 207.371,205.818 204.033 C 205.701 203.611,205.314 203.471,201.894 202.610 C 194.669 200.791,187.462 198.482,184.073 196.901 L 182.247 196.049 181.107 197.608 M126.225 301.250 C 125.188 304.468,119.136 323.008,117.463 328.092 C 115.168 335.064,113.641 337.911,110.558 340.962 C 101.709 349.720,84.637 350.228,73.267 342.070 L 71.761 340.989 71.904 342.045 C 73.293 352.305,83.818 358.502,99.800 358.470 C 104.491 358.461,106.864 358.219,110.376 357.395 L 112.129 356.983 113.546 354.842 C 115.920 351.252,118.763 348.524,122.360 346.384 L 123.900 345.467 124.040 343.984 C 124.901 334.893,126.846 324.276,130.116 310.829 L 131.397 305.558 130.585 304.635 C 129.591 303.506,128.198 301.428,127.580 300.150 C 126.973 298.896,126.986 298.885,126.225 301.250 " stroke="none" fill="#535353" fill-rule="evenodd"></path><path id="path1" d="M201.300 40.614 C 198.560 40.871,198.569 40.862,200.030 41.937 C 206.002 46.327,206.307 49.895,200.768 50.591 C 199.879 50.702,196.548 50.698,192.206 50.579 C 183.442 50.339,172.206 50.664,171.240 51.186 C 171.065 51.281,171.486 51.742,172.540 52.607 C 176.024 55.466,179.891 59.083,187.501 66.598 C 199.695 78.642,203.905 82.304,211.700 87.647 C 237.823 105.553,266.059 107.418,290.300 92.839 C 292.203 91.695,295.899 89.125,296.092 88.812 C 296.292 88.489,291.292 74.112,289.445 69.700 C 287.513 65.085,287.290 64.742,286.681 65.430 C 284.897 67.445,284.034 67.382,281.457 65.044 C 270.389 55.005,258.160 47.329,248.000 44.044 C 245.469 43.226,241.722 42.327,241.847 42.569 C 241.884 42.641,242.360 43.596,242.904 44.691 C 245.572 50.059,242.852 51.909,236.757 48.872 C 224.335 42.681,211.388 39.666,201.300 40.614 M178.892 106.490 C 178.088 107.294,177.236 109.391,176.881 111.443 C 173.675 129.944,202.668 139.445,215.943 124.242 C 217.535 122.420,217.714 122.762,214.019 120.548 L 210.838 118.642 210.492 119.548 C 207.469 127.463,197.434 131.105,189.444 127.186 C 182.902 123.979,180.251 115.361,183.695 108.498 L 184.533 106.829 182.816 106.527 C 179.318 105.912,179.469 105.913,178.892 106.490 M294.772 121.308 C 291.638 121.796,291.700 121.763,291.807 122.911 C 292.504 130.354,290.079 134.847,284.679 136.116 C 283.037 136.503,280.160 136.409,278.842 135.926 C 277.622 135.479,277.980 135.861,279.764 136.908 C 288.486 142.028,299.906 137.231,301.923 127.600 C 303.073 122.111,301.049 120.330,294.772 121.308 M241.000 136.017 C 233.824 136.886,230.913 141.390,236.600 142.823 C 238.136 143.210,247.606 143.213,249.300 142.826 C 257.867 140.873,250.539 134.860,241.000 136.017 M203.508 155.250 C 203.302 157.478,203.126 159.608,203.116 159.985 L 203.100 160.669 204.528 160.912 C 206.449 161.238,207.262 161.526,207.881 162.100 L 208.400 162.581 208.400 167.683 L 208.400 172.785 209.250 173.042 C 210.806 173.514,217.134 173.372,219.400 172.815 C 221.869 172.208,222.624 172.133,223.035 172.458 C 223.311 172.676,226.138 178.113,226.428 178.985 C 226.522 179.267,230.219 177.893,232.645 176.675 C 234.939 175.524,234.885 175.496,238.103 179.500 C 239.076 180.710,239.934 181.775,240.012 181.866 C 240.404 182.330,243.915 180.311,245.733 178.576 C 247.530 176.861,247.600 176.879,250.849 179.851 L 252.799 181.635 253.549 181.033 C 254.472 180.295,255.913 178.786,256.786 177.647 C 258.076 175.961,258.788 176.040,260.233 178.026 C 260.782 178.782,261.305 179.400,261.394 179.400 C 262.286 179.400,265.835 174.421,266.491 172.250 C 266.663 171.680,265.652 171.651,261.371 172.104 C 250.507 173.255,238.389 172.604,231.111 170.478 C 222.422 167.940,213.232 161.801,207.600 154.773 C 205.862 152.604,204.502 151.200,204.139 151.200 C 203.953 151.200,203.782 152.302,203.508 155.250 M198.877 164.298 C 198.120 164.682,197.056 165.388,196.512 165.866 L 195.525 166.736 196.096 167.718 C 201.276 176.627,208.810 182.731,220.248 187.287 C 230.228 191.263,244.380 192.149,255.071 189.467 C 257.923 188.751,261.392 187.619,262.549 187.025 L 263.205 186.689 261.447 184.589 C 260.480 183.434,259.381 182.061,259.005 181.537 L 258.322 180.586 256.511 182.359 C 252.809 185.984,252.934 185.970,249.913 183.116 L 247.725 181.050 246.313 182.125 C 244.023 183.870,240.766 185.298,239.379 185.165 C 238.696 185.099,238.464 184.849,234.699 180.131 L 234.098 179.378 232.599 180.061 C 230.222 181.144,226.216 182.600,225.613 182.600 C 224.836 182.600,224.622 182.292,222.931 178.750 C 221.268 175.266,221.467 175.431,219.500 175.901 C 215.699 176.811,210.673 176.700,207.502 175.636 C 205.331 174.908,205.407 175.141,205.403 169.163 C 205.400 164.637,205.371 164.218,205.050 164.121 C 202.696 163.409,200.507 163.472,198.877 164.298 M174.762 195.271 C 174.038 196.497,172.845 198.295,172.110 199.268 C 170.641 201.211,170.614 201.181,173.000 200.248 C 175.133 199.414,176.267 198.563,177.787 196.657 C 179.481 194.533,179.499 194.864,177.635 193.871 L 176.078 193.043 174.762 195.271 " stroke="none" fill="#fafaf3" fill-rule="evenodd"></path><path id="path2" d="M201.800 36.223 C 194.609 36.858,188.472 39.267,188.529 41.433 C 188.561 42.663,188.850 42.983,191.441 44.658 C 192.766 45.515,193.816 46.251,193.774 46.293 C 193.731 46.335,192.033 46.278,189.998 46.165 C 181.210 45.679,172.180 46.278,168.067 47.619 L 166.834 48.021 165.267 47.234 C 153.569 41.359,138.334 47.700,131.882 61.130 C 128.591 67.979,127.296 78.483,128.703 86.918 L 128.806 87.537 127.153 87.166 C 122.084 86.029,121.511 86.429,120.773 91.627 L 120.300 94.955 119.000 95.083 C 112.132 95.756,111.657 96.129,111.895 100.668 C 112.233 107.114,113.352 112.543,115.390 117.624 C 115.836 118.734,116.200 119.667,116.200 119.698 C 116.200 119.729,115.435 120.192,114.501 120.727 C 112.063 122.123,112.142 122.616,116.106 130.700 C 127.715 154.375,147.652 174.943,171.552 187.900 C 173.763 189.099,173.731 188.749,171.920 191.914 C 168.695 197.548,164.999 201.615,160.900 204.038 C 148.907 211.130,143.097 216.576,136.762 226.670 C 125.224 245.051,119.868 274.425,124.708 292.772 L 125.202 294.643 123.219 300.072 C 120.529 307.439,118.079 314.397,114.878 323.764 C 111.509 333.622,110.588 335.483,107.661 338.345 C 99.543 346.283,82.809 345.821,73.520 337.403 C 69.122 333.418,66.524 338.370,69.036 345.948 C 71.739 354.100,79.517 359.501,91.200 361.338 C 96.456 362.165,106.303 361.730,110.632 360.480 C 110.871 360.411,111.028 360.578,111.193 361.080 C 111.526 362.087,112.154 362.798,113.084 363.221 C 114.068 363.668,143.524 363.815,144.774 363.379 C 145.670 363.067,145.671 363.063,146.696 357.091 C 148.995 343.690,150.561 336.176,151.331 334.842 C 154.165 329.932,173.193 327.295,188.291 329.719 C 196.064 330.967,196.432 331.540,198.298 345.312 C 200.994 365.202,200.243 362.876,204.028 363.069 C 206.397 363.190,229.464 363.521,232.627 363.480 C 237.145 363.421,237.092 358.999,232.504 353.265 C 230.334 350.552,225.586 347.070,222.843 346.179 C 222.282 345.997,220.651 323.237,220.242 309.876 L 220.100 305.253 220.657 305.007 C 220.963 304.871,221.525 304.466,221.907 304.107 L 222.600 303.453 222.600 304.842 C 222.600 309.219,228.379 307.558,231.277 302.348 C 236.936 292.175,238.206 265.903,233.976 246.512 C 230.062 228.564,223.523 217.024,212.100 207.903 C 211.000 207.025,209.944 206.125,209.753 205.903 C 208.944 204.964,208.398 201.403,209.105 201.674 C 209.273 201.739,210.826 202.063,212.555 202.395 C 244.883 208.599,273.923 203.445,297.050 187.400 C 317.652 173.107,331.767 150.420,332.337 130.683 L 332.453 126.665 331.876 126.027 C 331.111 125.179,329.858 125.136,328.027 125.894 C 326.500 126.527,326.669 126.673,326.405 124.494 C 325.719 118.837,324.649 117.635,320.946 118.363 C 319.711 118.606,318.247 118.803,317.693 118.802 L 316.687 118.800 315.922 116.450 C 312.303 105.330,306.733 94.708,301.799 89.523 L 300.065 87.700 299.424 85.100 C 296.520 73.314,292.314 63.421,288.377 59.113 C 286.663 57.237,285.823 57.252,283.750 59.193 L 282.315 60.537 280.308 58.733 C 266.211 46.065,250.028 38.240,237.700 38.131 C 233.769 38.096,232.788 39.147,234.106 41.979 C 234.744 43.348,234.760 43.342,232.881 42.483 C 222.012 37.518,211.381 35.376,201.800 36.223 M211.301 40.701 C 218.928 41.583,226.978 44.063,235.379 48.120 C 239.175 49.954,239.678 50.067,240.473 49.273 C 241.245 48.500,241.150 47.876,239.800 44.868 C 239.140 43.397,238.600 42.139,238.600 42.073 C 238.600 41.894,241.044 42.184,243.200 42.620 C 253.680 44.735,267.556 52.618,279.842 63.437 C 282.145 65.465,282.413 65.485,284.371 63.783 C 285.141 63.114,285.840 62.564,285.925 62.561 C 286.762 62.529,290.620 71.785,294.362 82.800 C 295.352 85.715,296.223 88.251,296.298 88.437 C 296.655 89.327,287.980 94.689,282.111 97.204 C 257.950 107.562,232.198 103.272,207.500 84.772 C 201.436 80.230,198.136 77.264,188.500 67.695 C 181.492 60.736,177.047 56.567,172.935 53.096 L 170.569 51.100 171.535 50.959 C 174.680 50.501,180.293 50.349,189.870 50.460 L 200.039 50.579 200.520 50.099 C 201.815 48.804,199.817 45.673,195.816 42.728 C 194.625 41.851,194.586 41.796,195.031 41.627 C 197.924 40.529,205.893 40.075,211.301 40.701 M158.771 49.608 C 164.791 50.363,168.751 53.398,185.595 70.171 C 202.846 87.349,212.521 94.468,226.819 100.503 C 250.791 110.622,278.063 107.623,297.146 92.770 C 298.655 91.595,298.563 91.598,299.551 92.670 C 303.842 97.325,308.753 107.016,312.437 118.100 C 313.095 120.080,313.791 121.862,313.983 122.060 C 314.666 122.766,317.379 122.851,321.228 122.287 L 322.156 122.152 322.395 123.226 C 322.527 123.817,322.685 125.465,322.747 126.889 C 322.914 130.688,324.013 131.333,328.182 130.081 L 328.665 129.936 328.534 132.018 C 327.703 145.284,319.370 161.569,307.133 173.841 C 281.125 199.925,242.324 207.599,199.610 195.108 C 167.733 185.786,140.593 164.976,123.956 137.100 C 120.371 131.093,116.629 123.306,117.236 123.115 C 117.381 123.070,118.021 122.877,118.657 122.687 C 121.049 121.971,121.231 121.169,119.722 117.979 C 117.916 114.163,116.755 110.040,116.124 105.200 C 115.777 102.540,115.523 99.400,115.655 99.400 C 115.705 99.400,116.185 99.317,116.723 99.216 C 117.260 99.115,118.777 98.928,120.094 98.799 C 123.815 98.435,123.743 98.520,124.314 93.862 C 124.780 90.058,124.315 90.276,129.100 91.613 C 132.768 92.638,133.188 92.221,132.789 87.944 C 130.875 67.430,138.670 52.694,152.901 49.920 C 155.664 49.382,156.579 49.333,158.771 49.608 M178.194 102.107 C 172.650 103.816,170.720 115.478,174.705 123.188 C 182.063 137.424,206.985 140.068,217.575 127.736 C 217.961 127.286,218.165 127.198,218.580 127.303 C 222.477 128.290,224.964 127.454,228.427 123.991 C 232.118 120.301,233.503 116.235,231.261 115.672 C 230.429 115.464,229.826 115.957,229.294 117.280 C 227.008 122.973,225.124 123.015,216.541 117.563 C 200.896 107.627,192.526 103.883,182.200 102.206 C 179.316 101.738,179.387 101.739,178.194 102.107 M182.300 106.306 C 185.012 106.777,184.868 106.665,184.178 107.774 C 182.313 110.774,181.795 115.448,182.911 119.200 C 186.578 131.521,204.955 131.893,210.204 119.753 C 210.822 118.324,210.471 118.258,214.220 120.512 C 217.929 122.742,217.730 122.344,216.091 124.258 C 208.346 133.299,192.309 134.456,182.633 126.671 C 177.024 122.159,174.931 114.040,177.803 107.937 C 178.445 106.574,179.275 105.790,179.959 105.903 C 180.256 105.953,181.310 106.134,182.300 106.306 M293.932 117.514 C 288.962 118.287,282.860 120.268,272.900 124.344 C 268.328 126.215,267.076 126.619,266.517 126.406 C 265.466 126.007,264.747 124.377,264.484 121.800 C 264.329 120.293,263.851 119.600,262.965 119.600 C 260.835 119.600,261.107 124.803,263.426 128.429 C 265.284 131.334,266.948 132.463,269.456 132.519 L 271.011 132.554 272.046 134.027 C 280.549 146.134,297.915 145.146,304.318 132.191 C 307.416 125.922,305.896 118.913,301.131 117.498 C 299.876 117.125,296.380 117.133,293.932 117.514 M300.603 121.301 C 303.010 122.546,302.693 128.367,299.991 132.514 C 295.364 139.615,284.253 141.347,278.100 135.926 L 277.300 135.221 278.800 135.735 C 286.294 138.302,292.113 133.239,291.745 124.471 C 291.646 122.108,291.671 121.805,291.967 121.717 C 292.471 121.568,295.593 121.024,296.500 120.928 C 297.908 120.778,299.950 120.964,300.603 121.301 M241.766 132.016 C 231.128 132.737,223.484 136.819,220.411 143.421 C 216.124 152.629,223.271 158.348,235.872 155.792 L 238.244 155.311 238.628 155.784 C 238.957 156.191,239.003 156.532,238.955 158.212 C 238.860 161.573,240.433 162.512,247.285 163.185 C 251.560 163.605,252.691 163.409,254.393 161.953 C 255.184 161.276,257.562 160.000,258.034 160.000 C 258.181 160.000,258.949 160.487,259.739 161.081 C 266.480 166.152,276.005 161.241,275.993 152.700 C 275.975 140.295,260.207 130.767,241.766 132.016 M247.546 136.186 C 252.800 137.270,254.895 140.238,251.721 142.098 C 248.451 144.015,235.973 143.804,233.967 141.798 C 230.605 138.436,239.879 134.604,247.546 136.186 M198.250 147.498 C 190.375 149.703,187.833 158.518,192.517 167.379 C 201.597 184.555,220.452 194.398,243.400 193.941 C 262.640 193.558,275.385 185.475,273.423 174.900 C 272.373 169.244,269.655 168.176,259.200 169.312 C 253.438 169.939,245.075 169.768,238.115 168.881 C 227.140 167.484,216.500 161.234,208.889 151.713 C 205.868 147.934,202.067 146.428,198.250 147.498 M204.870 151.487 C 205.184 151.714,206.037 152.663,206.766 153.595 C 218.608 168.737,235.662 174.536,260.900 172.004 C 265.626 171.530,266.800 171.499,266.800 171.851 C 266.800 172.797,264.672 176.343,263.157 177.920 C 261.265 179.891,261.371 179.862,260.546 178.654 C 258.780 176.068,258.323 176.015,256.515 178.183 C 255.789 179.053,254.650 180.237,253.984 180.814 L 252.774 181.862 251.637 180.768 C 247.688 176.968,247.647 176.956,245.494 178.967 C 244.163 180.210,241.419 181.862,240.383 182.044 C 240.183 182.079,239.223 181.069,237.781 179.307 C 234.792 175.652,234.957 175.733,232.697 176.801 C 231.709 177.269,229.910 178.041,228.700 178.518 L 226.500 179.384 224.851 175.996 C 222.821 171.824,223.271 172.058,219.100 173.011 C 216.700 173.560,211.493 173.682,209.550 173.236 L 208.400 172.972 208.400 168.095 C 208.400 161.743,208.418 161.777,204.624 161.083 C 203.604 160.896,202.801 160.650,202.802 160.525 C 202.802 160.401,202.889 159.760,202.994 159.100 C 203.099 158.440,203.278 156.730,203.392 155.300 C 203.702 151.424,203.802 150.779,204.069 150.937 C 204.196 151.013,204.557 151.260,204.870 151.487 M203.018 163.625 C 203.943 163.749,204.903 163.927,205.150 164.020 L 205.600 164.190 205.600 169.295 C 205.600 175.210,205.499 174.906,207.683 175.580 C 210.760 176.531,215.194 176.614,219.300 175.799 C 220.400 175.580,221.328 175.401,221.362 175.401 C 221.396 175.400,222.121 176.833,222.974 178.584 C 224.799 182.331,224.849 182.400,225.723 182.400 C 226.340 182.400,230.295 180.962,233.029 179.744 L 234.157 179.241 236.399 182.034 C 237.632 183.570,238.848 184.921,239.100 185.037 C 240.027 185.459,243.930 183.796,246.343 181.951 C 247.883 180.772,247.446 180.639,250.114 183.100 C 253.064 185.821,252.733 185.865,256.402 182.268 L 258.303 180.404 259.228 181.652 C 259.736 182.338,260.878 183.749,261.766 184.786 C 263.634 186.970,263.642 186.800,261.635 187.575 C 237.866 196.741,208.319 188.139,196.488 168.609 L 195.342 166.718 196.121 166.039 C 198.852 163.658,200.074 163.231,203.018 163.625 M179.074 191.485 C 181.062 192.381,181.031 192.171,179.520 194.452 C 177.095 198.114,175.525 199.483,172.490 200.581 C 170.403 201.336,170.316 201.296,171.348 200.058 C 173.042 198.027,176.267 192.815,176.832 191.195 C 176.949 190.858,177.110 190.608,177.189 190.641 C 177.268 190.673,178.116 191.053,179.074 191.485 M188.856 198.773 C 192.760 200.120,197.239 201.438,201.894 202.610 C 205.314 203.471,205.701 203.611,205.818 204.033 C 206.743 207.371,206.993 207.728,210.230 210.319 C 221.681 219.486,227.686 230.753,231.098 249.475 C 234.420 267.694,232.564 293.956,227.430 301.387 C 226.299 303.024,226.278 302.990,226.133 299.256 C 225.972 295.104,225.751 293.687,225.171 293.069 C 224.317 292.160,222.559 292.645,222.316 293.856 C 221.667 297.087,220.691 300.207,220.175 300.691 C 219.914 300.937,220.074 274.455,220.385 265.900 C 220.489 263.040,220.778 255.243,221.026 248.574 C 221.527 235.101,221.557 235.598,220.221 235.305 C 219.546 235.156,218.522 235.595,218.321 236.118 C 218.197 236.441,217.619 250.635,217.207 263.500 C 216.203 294.833,216.666 316.833,218.873 342.665 C 219.399 348.821,219.134 348.244,222.094 349.668 C 226.853 351.956,229.973 354.788,231.872 358.543 C 232.737 360.252,233.014 360.153,227.650 360.056 C 225.038 360.009,218.655 359.909,213.467 359.835 C 208.278 359.761,203.965 359.632,203.882 359.549 C 203.799 359.466,203.217 355.011,202.587 349.649 C 201.001 336.137,200.680 334.265,199.490 331.613 C 197.477 327.128,191.808 325.403,177.149 324.814 C 167.335 324.419,158.905 325.908,151.694 329.310 C 147.491 331.293,146.285 335.181,143.138 356.900 L 142.675 360.100 128.547 360.151 L 114.419 360.203 114.730 359.451 C 116.389 355.435,120.790 350.887,125.341 348.485 C 127.018 347.601,127.124 347.412,127.301 345.000 C 127.871 337.226,130.242 324.095,133.311 311.714 C 133.800 309.741,134.200 308.111,134.200 308.092 C 134.200 308.073,135.072 308.494,136.137 309.029 C 140.028 310.980,140.578 310.316,140.594 303.650 C 140.600 300.975,140.743 300.496,141.203 301.608 C 141.849 303.166,142.981 303.665,144.001 302.840 C 144.499 302.436,145.031 298.340,146.498 283.600 C 147.319 275.355,147.637 272.870,148.325 269.300 C 150.454 258.265,155.052 245.866,160.420 236.682 C 161.767 234.378,161.856 233.825,161.015 232.985 C 159.347 231.316,158.239 232.567,154.405 240.447 C 148.022 253.564,144.998 264.867,143.500 281.200 C 142.834 288.466,142.003 296.663,141.925 296.742 C 141.890 296.777,141.440 296.170,140.924 295.395 C 139.874 293.816,139.266 293.441,138.358 293.817 C 137.467 294.186,137.446 294.348,137.555 299.995 C 137.675 306.313,137.598 306.676,136.533 304.772 C 134.938 301.920,133.506 298.270,132.544 294.607 C 132.035 292.667,131.516 292.141,130.470 292.509 C 129.178 292.964,129.217 294.039,130.696 298.700 C 130.765 298.920,130.587 298.665,130.298 298.133 C 124.262 286.985,126.135 259.316,134.210 240.366 C 140.464 225.687,148.449 216.279,161.000 208.801 C 162.705 207.785,164.505 206.668,165.000 206.317 C 165.655 205.853,166.607 205.499,168.500 205.015 C 175.549 203.211,178.108 201.708,181.107 197.608 L 182.247 196.049 184.073 196.901 C 185.078 197.370,187.230 198.212,188.856 198.773 M127.580 300.150 C 128.198 301.428,129.591 303.506,130.585 304.635 L 131.397 305.558 130.116 310.829 C 126.846 324.276,124.901 334.893,124.040 343.984 L 123.900 345.467 122.360 346.384 C 118.763 348.524,115.920 351.252,113.546 354.842 L 112.129 356.983 110.376 357.395 C 106.864 358.219,104.491 358.461,99.800 358.470 C 83.818 358.502,73.293 352.305,71.904 342.045 L 71.761 340.989 73.267 342.070 C 84.637 350.228,101.709 349.720,110.558 340.962 C 113.641 337.911,115.168 335.064,117.463 328.092 C 119.136 323.008,125.188 304.468,126.225 301.250 C 126.986 298.885,126.973 298.896,127.580 300.150 " stroke="none" fill="#161616" fill-rule="evenodd"></path><path id="path3" d="M197.625 41.119 C 196.923 41.273,195.994 41.494,195.560 41.611 L 194.771 41.823 196.036 42.782 C 200.220 45.955,201.968 48.832,200.563 50.237 L 200.137 50.663 201.168 50.541 C 206.276 49.936,205.790 46.171,200.060 41.959 C 199.378 41.457,198.875 40.991,198.943 40.923 C 199.011 40.856,199.029 40.809,198.983 40.820 C 198.938 40.831,198.326 40.966,197.625 41.119 M239.936 44.913 C 241.331 48.037,241.389 48.452,240.550 49.350 C 240.319 49.598,239.993 49.800,239.825 49.800 C 239.590 49.800,239.574 49.854,239.757 50.038 C 240.135 50.415,242.460 50.337,243.087 49.927 C 244.350 49.099,244.263 47.408,242.806 44.464 L 241.798 42.429 240.649 42.304 C 240.017 42.235,239.305 42.139,239.068 42.090 C 238.677 42.010,238.762 42.284,239.936 44.913 M179.954 50.545 C 180.313 50.589,180.853 50.589,181.154 50.543 C 181.454 50.497,181.160 50.461,180.500 50.462 C 179.840 50.463,179.594 50.500,179.954 50.545 M188.850 50.546 C 189.263 50.589,189.938 50.589,190.350 50.546 C 190.763 50.503,190.425 50.467,189.600 50.467 C 188.775 50.467,188.438 50.503,188.850 50.546 M197.453 50.744 C 197.757 50.789,198.207 50.788,198.453 50.741 C 198.699 50.693,198.450 50.656,197.900 50.657 C 197.350 50.659,197.149 50.698,197.453 50.744 M284.705 63.595 C 283.578 64.740,282.586 65.279,281.945 65.098 C 281.625 65.007,281.791 65.257,282.535 65.986 C 283.931 67.353,284.535 67.301,286.445 65.648 L 287.320 64.890 286.651 63.745 C 285.842 62.361,285.915 62.366,284.705 63.595 M194.600 73.663 C 194.600 73.697,194.893 73.990,195.250 74.313 L 195.900 74.900 195.313 74.250 C 194.765 73.644,194.600 73.508,194.600 73.663 M297.989 134.750 L 297.300 135.500 298.050 134.811 C 298.463 134.432,298.800 134.094,298.800 134.061 C 298.800 133.908,298.631 134.052,297.989 134.750 M265.100 171.701 C 265.567 171.864,266.800 171.907,266.800 171.760 C 266.800 171.672,266.373 171.607,265.850 171.616 C 265.328 171.624,264.990 171.663,265.100 171.701 M249.950 172.746 C 250.418 172.789,251.183 172.789,251.650 172.746 C 252.118 172.704,251.735 172.670,250.800 172.670 C 249.865 172.670,249.482 172.704,249.950 172.746 M212.850 173.546 C 213.263 173.589,213.938 173.589,214.350 173.546 C 214.763 173.503,214.425 173.467,213.600 173.467 C 212.775 173.467,212.438 173.503,212.850 173.546 M212.755 176.547 C 213.226 176.589,213.946 176.588,214.355 176.545 C 214.765 176.502,214.380 176.468,213.500 176.469 C 212.620 176.469,212.285 176.504,212.755 176.547 M262.887 178.050 L 262.300 178.700 262.950 178.113 C 263.556 177.565,263.692 177.400,263.537 177.400 C 263.503 177.400,263.210 177.692,262.887 178.050 M245.687 178.650 L 245.100 179.300 245.750 178.713 C 246.356 178.165,246.492 178.000,246.337 178.000 C 246.303 178.000,246.010 178.293,245.687 178.650 M176.710 191.780 C 176.430 192.334,176.200 192.861,176.200 192.951 C 176.200 193.135,178.828 194.600,179.157 194.600 C 179.358 194.600,180.600 192.747,180.600 192.447 C 180.600 192.334,178.649 191.360,177.374 190.837 C 177.290 190.802,176.991 191.226,176.710 191.780 M241.150 191.148 C 241.838 191.187,242.963 191.187,243.650 191.148 C 244.338 191.109,243.775 191.077,242.400 191.077 C 241.025 191.077,240.463 191.109,241.150 191.148 " stroke="none" fill="#acac9e" fill-rule="evenodd"></path><path id="path4" d="M191.350 50.541 C 191.597 50.589,192.003 50.589,192.250 50.541 C 192.498 50.493,192.295 50.454,191.800 50.454 C 191.305 50.454,191.103 50.493,191.350 50.541 M255.450 102.743 C 255.753 102.789,256.248 102.789,256.550 102.743 C 256.853 102.697,256.605 102.660,256.000 102.660 C 255.395 102.660,255.148 102.697,255.450 102.743 M291.854 125.600 C 291.854 126.095,291.893 126.297,291.941 126.050 C 291.989 125.803,291.989 125.397,291.941 125.150 C 291.893 124.903,291.854 125.105,291.854 125.600 M196.150 128.745 C 196.508 128.789,197.093 128.789,197.450 128.745 C 197.808 128.700,197.515 128.664,196.800 128.664 C 196.085 128.664,195.793 128.700,196.150 128.745 M242.050 143.348 C 242.683 143.387,243.718 143.387,244.350 143.348 C 244.982 143.308,244.465 143.276,243.200 143.276 C 241.935 143.276,241.418 143.308,242.050 143.348 M210.500 158.000 C 211.042 158.550,211.530 159.000,211.585 159.000 C 211.640 159.000,211.242 158.550,210.700 158.000 C 210.158 157.450,209.670 157.000,209.615 157.000 C 209.560 157.000,209.958 157.450,210.500 158.000 M205.400 169.060 L 205.499 174.100 205.553 169.214 C 205.583 166.526,205.538 164.258,205.454 164.173 C 205.369 164.089,205.345 166.288,205.400 169.060 " stroke="none" fill="#8d8d82" fill-rule="evenodd"></path></g></svg>