<svg id="svg" version="1.1" xmlns="http://www.w3.org/2000/svg" xmlns:xlink="http://www.w3.org/1999/xlink" width="400" height="400" viewBox="0, 0, 400,400"><g id="svgg"><path id="path0" d="M289.800 0.300 C 290.444 0.668,290.600 0.668,290.600 0.300 C 290.600 0.093,290.398 0.002,289.950 0.007 L 289.300 0.014 289.800 0.300 M125.253 71.605 C 125.007 71.704,124.527 72.238,124.186 72.793 C 123.798 73.423,123.426 73.800,123.191 73.800 C 122.908 73.800,122.473 74.498,121.414 76.650 C 120.642 78.218,119.786 79.860,119.511 80.300 C 119.235 80.740,118.860 81.370,118.676 81.700 C 118.491 82.030,118.142 82.570,117.899 82.900 C 117.319 83.689,115.256 87.132,114.305 88.900 C 113.891 89.670,110.075 96.051,105.826 103.080 C 101.577 110.108,98.123 115.936,98.150 116.030 C 98.178 116.123,98.112 116.200,98.005 116.200 C 97.809 116.200,97.145 117.321,97.246 117.482 C 97.276 117.529,97.112 117.778,96.881 118.034 C 96.324 118.655,94.569 121.599,94.754 121.603 C 94.834 121.605,94.765 121.693,94.600 121.800 C 94.382 121.941,94.372 121.995,94.562 121.997 C 94.706 121.999,94.768 122.090,94.700 122.199 C 94.514 122.500,94.392 123.275,94.556 123.110 C 94.635 123.031,94.712 122.907,94.727 122.833 C 94.854 122.203,95.096 121.800,95.348 121.800 C 95.606 121.800,95.609 121.849,95.374 122.138 C 95.221 122.327,95.204 122.415,95.335 122.336 C 95.472 122.254,95.608 122.342,95.662 122.548 C 95.724 122.785,95.761 122.733,95.777 122.390 C 95.807 121.730,96.153 121.396,96.790 121.414 C 97.254 121.427,97.264 121.444,96.900 121.600 C 96.581 121.737,96.567 121.775,96.833 121.786 C 97.017 121.794,97.202 121.907,97.246 122.038 C 97.298 122.195,97.458 122.145,97.721 121.888 C 97.939 121.674,98.293 121.474,98.509 121.442 C 98.833 121.393,98.848 121.419,98.600 121.589 C 98.380 121.739,98.370 121.795,98.562 121.797 C 98.706 121.799,98.766 121.894,98.695 122.008 C 98.612 122.143,98.748 122.170,99.083 122.086 C 99.409 122.004,99.600 122.040,99.600 122.181 C 99.600 122.305,99.866 122.112,100.190 121.753 C 100.698 121.192,100.765 121.163,100.667 121.550 C 100.604 121.797,100.429 122.000,100.278 122.000 C 100.105 122.000,100.028 122.168,100.071 122.450 C 100.167 123.081,100.463 123.010,100.700 122.300 C 100.855 121.834,101.021 121.698,101.439 121.693 C 101.861 121.687,101.930 121.743,101.760 121.948 C 101.641 122.092,101.613 122.275,101.699 122.355 C 101.785 122.435,101.895 122.388,101.944 122.250 C 101.993 122.113,102.112 122.000,102.207 122.000 C 102.489 122.000,99.525 126.783,99.238 126.792 C 99.094 126.796,99.034 126.892,99.103 127.005 C 99.173 127.118,98.290 128.761,97.141 130.655 C 93.675 136.370,56.958 197.053,56.568 197.712 L 56.205 198.325 76.019 232.312 C 86.917 251.006,103.087 278.743,111.954 293.950 L 128.076 321.600 134.190 321.600 L 140.305 321.600 142.328 318.550 C 147.243 311.139,151.293 307.225,161.000 300.505 C 169.278 294.775,172.199 291.862,174.670 286.873 C 175.766 284.661,175.908 284.222,175.564 284.118 C 151.333 276.773,132.722 266.150,115.316 249.731 C 102.339 237.488,89.545 219.215,83.840 204.772 C 82.589 201.605,82.585 201.621,85.208 200.107 C 86.166 199.555,86.788 199.074,86.725 198.935 C 83.839 192.571,82.200 184.952,82.200 177.896 C 82.200 174.643,82.296 174.397,83.750 173.921 C 84.890 173.548,87.535 173.087,89.612 172.898 L 91.123 172.760 91.580 169.473 C 92.389 163.643,92.935 163.227,98.229 164.406 C 100.388 164.887,100.223 164.973,99.986 163.495 C 98.982 157.221,99.783 146.845,101.721 141.049 C 107.490 123.792,125.320 114.657,139.227 121.833 L 140.753 122.620 142.027 122.214 C 146.666 120.732,154.170 120.178,164.100 120.585 C 167.180 120.711,169.880 120.860,170.100 120.917 C 170.742 121.082,169.578 120.156,167.200 118.609 C 162.355 115.459,162.766 114.117,169.280 111.818 C 180.549 107.842,198.262 110.063,212.467 117.234 C 213.922 117.969,213.895 118.021,213.048 116.101 C 211.515 112.627,212.273 111.891,217.200 112.069 C 230.365 112.544,246.335 120.312,261.475 133.604 L 264.250 136.040 265.575 134.742 C 267.960 132.407,268.700 132.401,270.848 134.700 C 274.725 138.850,280.627 153.166,282.800 163.695 C 283.027 164.791,283.187 165.039,284.747 166.695 C 290.507 172.811,296.168 183.742,300.647 197.400 L 300.942 198.300 302.221 198.246 C 302.924 198.217,304.474 198.010,305.665 197.788 C 306.855 197.565,308.025 197.442,308.265 197.515 C 309.766 197.972,310.985 200.932,311.318 204.933 L 311.455 206.564 312.277 206.302 C 312.730 206.158,313.641 205.836,314.303 205.586 C 317.045 204.553,317.600 205.286,317.599 209.941 C 317.594 225.826,308.274 245.309,293.700 259.901 C 273.604 280.021,246.494 290.560,215.850 290.165 C 213.072 290.129,210.800 290.153,210.800 290.219 C 210.800 290.490,212.859 293.241,213.914 294.380 C 215.602 296.204,217.619 297.756,222.400 300.909 C 232.533 307.593,237.578 312.636,242.351 320.850 L 242.787 321.600 257.351 321.600 L 271.916 321.600 272.882 319.950 C 277.269 312.452,343.388 199.005,343.556 198.688 C 343.797 198.231,345.163 200.559,328.363 172.800 C 323.469 164.715,316.198 152.700,312.203 146.100 C 308.209 139.500,304.187 132.854,303.264 131.331 C 302.342 129.809,301.568 128.459,301.544 128.331 C 301.520 128.204,301.435 128.051,301.355 127.991 C 301.126 127.819,298.600 123.600,298.600 123.389 C 298.600 123.285,298.510 123.200,298.400 123.200 C 298.290 123.200,298.200 123.095,298.200 122.966 C 298.200 122.837,298.061 122.578,297.891 122.390 C 297.608 122.077,297.625 122.037,298.100 121.918 C 298.637 121.783,299.074 121.919,298.917 122.172 C 298.868 122.252,299.000 122.330,299.210 122.346 C 299.420 122.362,299.644 122.290,299.708 122.187 C 299.772 122.084,299.627 122.000,299.387 122.000 C 299.016 122.000,298.989 121.954,299.208 121.691 C 299.392 121.469,299.505 121.446,299.607 121.612 C 299.712 121.781,299.787 121.783,299.889 121.618 C 299.965 121.495,300.121 121.451,300.236 121.522 C 300.351 121.593,300.532 121.527,300.638 121.376 C 300.796 121.149,300.815 121.154,300.744 121.400 C 300.696 121.565,300.509 121.687,300.328 121.672 C 299.951 121.640,299.875 122.299,300.231 122.519 C 300.368 122.604,300.408 122.574,300.328 122.445 C 300.186 122.216,300.946 121.879,301.148 122.082 C 301.213 122.147,301.127 122.200,300.957 122.200 C 300.786 122.200,300.596 122.403,300.533 122.650 C 300.431 123.057,300.445 123.067,300.680 122.753 C 300.823 122.562,300.998 122.465,301.070 122.536 C 301.141 122.608,301.200 122.556,301.200 122.422 C 301.200 122.277,301.302 122.239,301.450 122.330 C 301.588 122.415,301.544 122.246,301.354 121.955 C 301.021 121.446,301.022 121.427,301.390 121.454 C 301.600 121.470,301.734 121.545,301.688 121.620 C 301.578 121.798,302.599 122.467,302.751 122.316 C 302.814 122.252,302.804 122.200,302.726 122.200 C 302.649 122.200,302.682 122.020,302.800 121.800 C 302.918 121.580,303.123 121.401,303.257 121.403 C 303.445 121.405,303.445 121.441,303.261 121.558 C 302.885 121.797,303.269 122.202,303.778 122.104 C 304.089 122.044,304.206 122.097,304.140 122.267 C 304.086 122.409,304.207 122.530,304.417 122.546 C 304.684 122.566,304.778 122.455,304.745 122.159 C 304.720 121.931,304.835 121.705,305.000 121.657 C 305.238 121.588,305.245 121.608,305.033 121.757 C 304.816 121.910,304.824 121.966,305.077 122.063 C 305.778 122.333,305.414 121.513,303.553 118.636 C 303.362 118.341,303.117 117.897,303.008 117.650 C 302.899 117.403,302.733 117.200,302.638 117.200 C 302.544 117.200,302.463 117.088,302.458 116.950 C 302.437 116.370,275.275 71.899,274.793 71.655 C 274.194 71.352,126.005 71.303,125.253 71.605 M99.249 121.234 C 99.159 121.578,99.204 121.641,99.468 121.540 C 99.651 121.470,99.800 121.500,99.800 121.606 C 99.800 121.951,99.220 121.812,99.009 121.416 C 98.859 121.137,98.871 121.005,99.052 120.932 C 99.188 120.877,99.314 120.824,99.331 120.816 C 99.348 120.807,99.312 120.995,99.249 121.234 M304.492 121.649 C 304.420 121.836,304.223 121.916,303.987 121.855 C 303.475 121.721,303.486 121.401,304.000 121.500 C 304.220 121.542,304.400 121.477,304.400 121.355 C 304.400 121.233,304.447 121.180,304.505 121.238 C 304.562 121.296,304.556 121.481,304.492 121.649 M96.185 121.617 C 96.176 121.663,96.139 121.857,96.103 122.049 C 96.066 122.241,96.132 122.458,96.249 122.530 C 96.384 122.614,96.402 122.565,96.298 122.397 C 96.177 122.200,96.228 122.168,96.495 122.271 C 96.814 122.393,96.825 122.368,96.585 122.055 C 96.435 121.860,96.288 121.663,96.257 121.617 C 96.225 121.571,96.193 121.571,96.185 121.617 M97.896 122.212 C 97.823 122.442,97.817 122.683,97.882 122.748 C 97.947 122.813,98.000 122.724,98.000 122.550 C 98.000 122.376,98.108 122.197,98.240 122.153 C 98.415 122.095,98.419 122.035,98.255 121.934 C 98.123 121.853,97.973 121.969,97.896 122.212 M280.850 200.538 C 281.043 200.588,281.358 200.588,281.550 200.538 C 281.743 200.488,281.585 200.446,281.200 200.446 C 280.815 200.446,280.657 200.488,280.850 200.538 M348.778 203.300 C 347.558 205.197,347.509 205.612,348.664 204.281 C 349.171 203.697,349.405 203.249,349.360 202.950 C 349.299 202.546,349.240 202.581,348.778 203.300 M182.088 252.100 C 182.087 255.070,182.115 256.313,182.149 254.862 C 182.184 253.411,182.184 250.981,182.150 249.462 C 182.116 247.943,182.088 249.130,182.088 252.100 M227.352 255.741 C 227.601 255.789,227.961 255.787,228.152 255.737 C 228.344 255.687,228.140 255.648,227.700 255.650 C 227.260 255.653,227.104 255.694,227.352 255.741 M232.952 255.741 C 233.201 255.789,233.561 255.787,233.752 255.737 C 233.944 255.687,233.740 255.648,233.300 255.650 C 232.860 255.653,232.704 255.694,232.952 255.741 M279.300 399.800 C 278.979 399.938,279.048 399.975,279.650 399.986 C 280.063 399.994,280.400 399.910,280.400 399.800 C 280.400 399.561,279.856 399.561,279.300 399.800 " stroke="none" fill="#f09337" fill-rule="evenodd"></path><path id="path1" d="M177.802 114.609 C 175.847 114.797,174.756 114.981,172.250 115.546 C 170.521 115.936,170.531 115.894,171.940 116.900 C 176.078 119.855,178.283 123.389,176.910 124.870 L 176.421 125.398 165.560 125.273 C 154.266 125.143,145.200 125.457,145.200 125.978 C 145.200 126.045,146.089 126.838,147.176 127.741 C 151.197 131.079,155.715 135.315,164.199 143.701 C 181.520 160.824,191.532 168.234,205.619 174.358 C 230.035 184.972,256.902 182.387,277.229 167.468 C 279.360 165.904,279.393 166.931,276.979 159.838 C 272.983 148.098,270.324 141.593,268.221 138.413 C 268.069 138.184,267.725 138.395,266.505 139.463 C 264.287 141.405,264.079 141.381,261.155 138.841 C 248.354 127.719,234.577 119.744,223.777 117.203 C 222.012 116.788,217.796 116.137,217.672 116.261 C 217.634 116.299,218.187 117.628,218.901 119.215 C 220.492 122.752,220.537 123.608,219.171 124.315 C 218.300 124.765,218.061 124.696,214.381 122.926 C 201.201 116.589,188.116 113.613,177.802 114.609 M153.775 184.951 C 151.049 187.245,150.484 195.108,152.687 200.089 C 157.556 211.099,176.013 215.685,187.658 208.778 C 190.487 207.100,195.109 202.602,194.539 202.081 C 194.363 201.920,188.999 198.648,187.972 198.075 C 187.901 198.035,187.516 198.692,187.116 199.534 C 183.704 206.718,176.321 210.171,168.300 208.333 C 159.067 206.218,154.477 195.912,158.869 187.158 L 159.743 185.417 158.631 185.186 C 155.051 184.443,154.417 184.412,153.775 184.951 M278.100 200.728 C 277.880 200.773,276.923 200.951,275.973 201.125 L 274.247 201.441 274.344 204.370 C 274.496 208.987,273.607 211.974,271.433 214.148 C 268.899 216.682,264.161 217.676,260.500 216.440 L 259.300 216.034 260.000 216.629 C 266.099 221.811,277.291 220.378,282.294 213.775 C 285.715 209.261,286.454 202.646,283.723 200.981 C 283.126 200.617,279.456 200.452,278.100 200.728 M218.934 216.706 C 213.739 217.689,210.434 221.046,212.858 222.877 C 215.302 224.722,227.535 224.926,231.138 223.181 C 233.245 222.162,233.463 219.973,231.594 218.619 C 229.151 216.849,223.049 215.927,218.934 216.706 M180.398 232.638 C 180.391 232.951,179.583 241.140,179.483 241.919 L 179.352 242.937 180.905 243.188 C 182.923 243.513,183.965 243.891,184.647 244.545 L 185.200 245.075 185.200 250.503 L 185.200 255.931 186.250 256.187 C 189.074 256.876,193.958 256.659,198.042 255.664 C 200.908 254.966,200.777 254.869,202.907 259.308 L 204.572 262.781 206.636 261.985 C 207.771 261.548,209.638 260.739,210.784 260.187 C 213.621 258.820,213.423 258.738,216.518 262.564 C 218.186 264.626,219.166 265.678,219.378 265.637 C 220.767 265.366,223.274 263.821,225.286 261.998 C 227.083 260.369,227.151 260.385,230.293 263.194 L 232.751 265.391 234.426 263.809 C 235.347 262.940,236.415 261.778,236.800 261.227 C 238.151 259.295,239.139 259.391,240.661 261.604 C 241.189 262.372,241.694 263.000,241.782 263.000 C 242.414 263.000,245.436 259.306,246.383 257.376 C 247.723 254.644,247.718 254.549,246.250 254.694 C 245.618 254.756,243.795 254.937,242.200 255.096 C 228.072 256.499,215.669 255.593,206.858 252.514 C 198.490 249.589,189.634 243.211,183.778 235.892 C 182.213 233.936,181.543 233.257,180.650 232.725 C 180.513 232.643,180.399 232.604,180.398 232.638 M175.564 246.477 C 174.440 246.939,173.290 247.722,172.069 248.856 L 171.437 249.442 172.150 250.671 C 184.367 271.734,215.486 281.229,241.426 271.807 C 244.088 270.839,244.044 270.991,242.270 268.900 C 241.430 267.910,240.246 266.442,239.638 265.637 L 238.533 264.175 236.716 265.950 C 232.509 270.061,232.850 270.016,229.571 266.905 L 227.153 264.611 226.148 265.489 C 224.071 267.306,219.385 269.440,218.152 269.131 C 217.779 269.037,216.881 268.086,215.179 265.983 C 213.428 263.818,212.651 262.999,212.421 263.076 C 212.244 263.135,210.403 263.869,208.330 264.708 C 202.612 267.019,203.046 267.165,200.695 262.133 L 199.121 258.766 198.511 258.891 C 191.381 260.358,184.159 259.935,182.491 257.953 L 182.000 257.369 182.000 252.001 L 182.000 246.632 181.450 246.520 C 178.350 245.888,177.019 245.878,175.564 246.477 " stroke="none" fill="#fbfbf3" fill-rule="evenodd"></path><path id="path2" d="M181.350 109.949 C 182.148 109.986,183.453 109.986,184.250 109.949 C 185.048 109.911,184.395 109.879,182.800 109.879 C 181.205 109.879,180.553 109.911,181.350 109.949 M217.650 112.138 C 217.843 112.188,218.157 112.188,218.350 112.138 C 218.543 112.088,218.385 112.046,218.000 112.046 C 217.615 112.046,217.457 112.088,217.650 112.138 M178.250 114.538 C 178.442 114.588,178.758 114.588,178.950 114.538 C 179.143 114.488,178.985 114.446,178.600 114.446 C 178.215 114.446,178.058 114.488,178.250 114.538 M184.750 114.541 C 184.998 114.589,185.403 114.589,185.650 114.541 C 185.898 114.493,185.695 114.454,185.200 114.454 C 184.705 114.454,184.503 114.493,184.750 114.541 M156.260 120.549 C 157.228 120.586,158.758 120.586,159.660 120.549 C 160.562 120.512,159.770 120.482,157.900 120.482 C 156.030 120.482,155.292 120.512,156.260 120.549 M165.750 120.741 C 165.998 120.789,166.403 120.789,166.650 120.741 C 166.898 120.693,166.695 120.654,166.200 120.654 C 165.705 120.654,165.503 120.693,165.750 120.741 M220.046 122.600 C 220.046 122.985,220.088 123.142,220.138 122.950 C 220.188 122.758,220.188 122.442,220.138 122.250 C 220.088 122.058,220.046 122.215,220.046 122.600 M126.200 124.485 C 115.110 126.798,107.010 136.080,104.818 148.990 C 103.963 154.025,103.903 157.595,104.525 166.630 C 104.744 169.810,104.121 170.111,99.770 168.929 C 97.068 168.195,95.801 167.950,95.798 168.163 C 95.782 169.157,94.767 175.458,94.573 175.769 C 94.182 176.395,93.597 176.546,90.200 176.899 C 85.819 177.353,86.200 177.155,86.200 178.978 C 86.200 184.396,88.170 192.759,90.586 197.590 C 91.728 199.876,91.816 200.513,91.107 201.355 C 90.651 201.897,90.332 202.035,87.850 202.767 C 87.313 202.926,89.157 207.185,92.203 212.820 C 115.085 255.160,159.541 282.759,209.742 285.792 C 255.236 288.540,295.456 265.284,309.918 227.866 C 312.657 220.777,314.662 209.865,313.150 210.275 C 310.785 210.916,308.778 210.882,308.032 210.187 C 307.490 209.682,307.444 209.432,307.328 206.400 C 307.275 205.025,307.125 203.418,306.995 202.828 L 306.757 201.756 306.029 201.871 C 299.032 202.980,298.066 202.655,296.820 198.777 C 292.790 186.238,287.521 175.760,282.312 169.931 L 281.625 169.163 280.063 170.347 C 260.777 184.966,235.017 188.955,211.200 181.013 C 193.978 175.270,180.972 166.328,161.400 146.775 C 149.322 134.710,141.717 127.881,138.393 126.117 C 135.267 124.458,129.824 123.730,126.200 124.485 M217.850 124.538 C 218.043 124.588,218.357 124.588,218.550 124.538 C 218.743 124.488,218.585 124.446,218.200 124.446 C 217.815 124.446,217.657 124.488,217.850 124.538 M157.650 125.149 C 159.053 125.184,161.347 125.184,162.750 125.149 C 164.153 125.115,163.005 125.087,160.200 125.087 C 157.395 125.087,156.248 125.115,157.650 125.149 M150.950 125.341 C 151.197 125.389,151.603 125.389,151.850 125.341 C 152.097 125.293,151.895 125.254,151.400 125.254 C 150.905 125.254,150.703 125.293,150.950 125.341 M170.856 125.347 C 171.382 125.389,172.192 125.388,172.656 125.346 C 173.120 125.304,172.690 125.270,171.700 125.271 C 170.710 125.272,170.330 125.306,170.856 125.347 M109.593 127.950 L 108.500 129.100 109.650 128.007 C 110.718 126.991,110.892 126.800,110.743 126.800 C 110.712 126.800,110.194 127.317,109.593 127.950 M151.600 131.663 C 151.600 131.697,151.893 131.990,152.250 132.313 L 152.900 132.900 152.313 132.250 C 151.765 131.644,151.600 131.508,151.600 131.663 M154.700 134.600 C 155.130 135.040,155.526 135.400,155.581 135.400 C 155.636 135.400,155.330 135.040,154.900 134.600 C 154.470 134.160,154.074 133.800,154.019 133.800 C 153.964 133.800,154.270 134.160,154.700 134.600 M265.789 134.550 L 265.100 135.300 265.850 134.611 C 266.548 133.969,266.692 133.800,266.539 133.800 C 266.506 133.800,266.168 134.138,265.789 134.550 M164.100 143.800 C 167.729 147.430,170.743 150.400,170.798 150.400 C 170.853 150.400,167.929 147.430,164.300 143.800 C 160.671 140.170,157.657 137.200,157.602 137.200 C 157.547 137.200,160.471 140.170,164.100 143.800 M267.481 138.450 L 267.100 138.900 267.537 138.530 C 267.784 138.322,268.081 138.227,268.218 138.311 C 268.374 138.407,268.410 138.378,268.319 138.231 C 268.110 137.893,267.908 137.945,267.481 138.450 M265.887 139.850 L 265.300 140.500 265.950 139.913 C 266.556 139.365,266.692 139.200,266.537 139.200 C 266.503 139.200,266.210 139.493,265.887 139.850 M173.000 152.500 C 173.373 152.885,173.723 153.200,173.778 153.200 C 173.833 153.200,173.573 152.885,173.200 152.500 C 172.827 152.115,172.477 151.800,172.422 151.800 C 172.367 151.800,172.627 152.115,173.000 152.500 M284.100 166.200 C 284.753 166.860,285.332 167.400,285.387 167.400 C 285.442 167.400,284.953 166.860,284.300 166.200 C 283.647 165.540,283.068 165.000,283.013 165.000 C 282.958 165.000,283.447 165.540,284.100 166.200 M157.945 180.599 C 168.359 182.327,177.020 186.210,193.046 196.336 C 199.646 200.506,200.486 200.958,201.950 201.131 C 204.498 201.432,206.649 199.524,207.792 195.948 C 208.175 194.750,209.443 194.395,210.337 195.235 C 212.508 197.275,206.553 205.527,201.700 207.203 C 200.337 207.674,198.033 207.769,196.600 207.413 L 195.700 207.189 194.100 208.712 C 179.955 222.179,152.735 216.573,147.720 199.161 C 145.363 190.976,148.306 181.221,153.437 180.214 C 154.409 180.024,154.553 180.036,157.945 180.599 M231.950 180.941 C 232.197 180.989,232.603 180.989,232.850 180.941 C 233.097 180.893,232.895 180.854,232.400 180.854 C 231.905 180.854,231.703 180.893,231.950 180.941 M238.950 180.941 C 239.197 180.989,239.603 180.989,239.850 180.941 C 240.097 180.893,239.895 180.854,239.400 180.854 C 238.905 180.854,238.703 180.893,238.950 180.941 M157.254 193.200 C 157.254 193.695,157.293 193.898,157.341 193.650 C 157.389 193.403,157.389 192.998,157.341 192.750 C 157.293 192.503,157.254 192.705,157.254 193.200 M157.254 195.000 C 157.254 195.495,157.293 195.697,157.341 195.450 C 157.389 195.203,157.389 194.798,157.341 194.550 C 157.293 194.303,157.254 194.505,157.254 195.000 M283.416 196.603 C 291.011 198.043,291.515 209.702,284.312 217.348 C 275.411 226.798,260.616 225.292,252.996 214.161 L 252.113 212.871 250.607 212.876 C 248.878 212.882,247.684 212.445,246.274 211.290 C 242.475 208.177,240.408 199.643,243.317 199.082 C 244.456 198.863,244.940 199.563,245.194 201.800 C 245.444 203.990,246.169 205.719,247.038 206.195 C 247.793 206.607,248.396 206.421,255.442 203.595 C 270.072 197.727,278.385 195.649,283.416 196.603 M279.552 200.541 C 279.801 200.589,280.161 200.587,280.352 200.537 C 280.544 200.487,280.340 200.448,279.900 200.450 C 279.460 200.453,279.304 200.494,279.552 200.541 M83.046 202.200 C 83.046 202.585,83.088 202.743,83.138 202.550 C 83.188 202.358,83.188 202.043,83.138 201.850 C 83.088 201.658,83.046 201.815,83.046 202.200 M285.450 205.300 C 285.453 205.740,285.494 205.896,285.541 205.648 C 285.589 205.399,285.587 205.039,285.537 204.848 C 285.487 204.656,285.448 204.860,285.450 205.300 M171.152 208.741 C 171.401 208.789,171.761 208.787,171.952 208.737 C 172.144 208.687,171.940 208.648,171.500 208.650 C 171.060 208.653,170.904 208.694,171.152 208.741 M173.752 208.741 C 174.001 208.789,174.361 208.787,174.552 208.737 C 174.744 208.687,174.540 208.648,174.100 208.650 C 173.660 208.653,173.504 208.694,173.752 208.741 M174.050 212.147 C 174.572 212.188,175.428 212.188,175.950 212.147 C 176.472 212.106,176.045 212.072,175.000 212.072 C 173.955 212.072,173.528 212.106,174.050 212.147 M231.140 212.509 C 245.799 214.430,257.391 224.091,257.435 234.424 C 257.454 238.836,255.517 241.992,251.474 244.134 C 247.277 246.358,243.654 246.082,239.918 243.252 C 238.082 241.860,237.577 241.961,234.214 244.390 C 232.007 245.984,229.741 246.192,224.289 245.301 C 218.549 244.363,217.802 243.759,217.801 240.055 C 217.800 237.005,217.802 237.006,214.388 237.736 C 199.740 240.870,192.060 232.477,199.705 221.691 C 204.722 214.613,217.875 210.771,231.140 212.509 M262.752 216.941 C 263.001 216.989,263.361 216.987,263.552 216.937 C 263.744 216.887,263.540 216.848,263.100 216.850 C 262.660 216.853,262.504 216.894,262.752 216.941 M264.352 216.941 C 264.601 216.989,264.961 216.987,265.152 216.937 C 265.344 216.887,265.140 216.848,264.700 216.850 C 264.260 216.853,264.104 216.894,264.352 216.941 M268.955 219.947 C 269.426 219.989,270.146 219.988,270.555 219.945 C 270.965 219.902,270.580 219.868,269.700 219.869 C 268.820 219.869,268.485 219.904,268.955 219.947 M217.950 224.341 C 218.197 224.389,218.603 224.389,218.850 224.341 C 219.097 224.293,218.895 224.254,218.400 224.254 C 217.905 224.254,217.703 224.293,217.950 224.341 M225.752 224.341 C 226.001 224.389,226.361 224.387,226.552 224.337 C 226.744 224.287,226.540 224.248,226.100 224.250 C 225.660 224.253,225.504 224.294,225.752 224.341 M179.500 228.873 C 182.141 229.580,183.776 230.847,186.600 234.373 C 193.616 243.136,204.876 249.828,215.400 251.489 C 222.704 252.642,233.375 252.862,241.387 252.025 C 249.693 251.157,252.014 251.799,253.778 255.451 C 257.398 262.951,252.274 271.265,241.700 275.044 C 212.883 285.344,178.253 272.794,167.248 248.062 C 162.546 237.496,169.724 226.254,179.500 228.873 M185.400 237.863 C 185.400 237.897,185.692 238.190,186.050 238.513 L 186.700 239.100 186.113 238.450 C 185.565 237.844,185.400 237.708,185.400 237.863 M189.000 241.500 C 189.373 241.885,189.723 242.200,189.778 242.200 C 189.833 242.200,189.573 241.885,189.200 241.500 C 188.827 241.115,188.477 240.800,188.422 240.800 C 188.367 240.800,188.627 241.115,189.000 241.500 M112.800 247.300 C 113.841 248.345,114.737 249.200,114.792 249.200 C 114.847 249.200,114.041 248.345,113.000 247.300 C 111.959 246.255,111.063 245.400,111.008 245.400 C 110.953 245.400,111.759 246.255,112.800 247.300 M177.050 245.938 C 177.243 245.988,177.558 245.988,177.750 245.938 C 177.942 245.888,177.785 245.846,177.400 245.846 C 177.015 245.846,176.858 245.888,177.050 245.938 M224.152 255.541 C 224.401 255.589,224.761 255.587,224.952 255.537 C 225.144 255.487,224.940 255.448,224.500 255.450 C 224.060 255.453,223.904 255.494,224.152 255.541 M236.050 255.538 C 236.243 255.588,236.558 255.588,236.750 255.538 C 236.943 255.488,236.785 255.446,236.400 255.446 C 236.015 255.446,235.857 255.488,236.050 255.538 M229.457 255.748 C 230.094 255.788,231.084 255.787,231.657 255.747 C 232.231 255.707,231.710 255.674,230.500 255.675 C 229.290 255.675,228.821 255.708,229.457 255.748 M189.850 256.747 C 190.373 256.788,191.228 256.788,191.750 256.747 C 192.273 256.706,191.845 256.672,190.800 256.672 C 189.755 256.672,189.328 256.706,189.850 256.747 M188.450 259.738 C 188.643 259.788,188.958 259.788,189.150 259.738 C 189.343 259.688,189.185 259.646,188.800 259.646 C 188.415 259.646,188.258 259.688,188.450 259.738 M192.352 259.741 C 192.601 259.789,192.961 259.787,193.152 259.737 C 193.344 259.687,193.140 259.648,192.700 259.650 C 192.260 259.653,192.104 259.694,192.352 259.741 M234.989 263.350 L 234.300 264.100 235.050 263.411 C 235.463 263.032,235.800 262.694,235.800 262.661 C 235.800 262.508,235.631 262.652,234.989 263.350 M229.400 266.700 C 229.773 267.085,230.123 267.400,230.178 267.400 C 230.233 267.400,229.973 267.085,229.600 266.700 C 229.227 266.315,228.877 266.000,228.822 266.000 C 228.767 266.000,229.027 266.315,229.400 266.700 M235.589 266.950 L 234.900 267.700 235.650 267.011 C 236.063 266.632,236.400 266.294,236.400 266.261 C 236.400 266.108,236.231 266.252,235.589 266.950 M218.955 275.547 C 219.426 275.589,220.146 275.588,220.555 275.545 C 220.965 275.502,220.580 275.468,219.700 275.469 C 218.820 275.469,218.485 275.504,218.955 275.547 M222.450 275.546 C 222.863 275.589,223.538 275.589,223.950 275.546 C 224.363 275.503,224.025 275.467,223.200 275.467 C 222.375 275.467,222.038 275.503,222.450 275.546 M215.150 290.149 C 216.278 290.185,218.123 290.185,219.250 290.149 C 220.378 290.114,219.455 290.084,217.200 290.084 C 214.945 290.084,214.023 290.114,215.150 290.149 M177.323 290.955 C 176.805 291.958,174.684 294.703,173.267 296.207 C 170.978 298.636,168.316 300.710,161.400 305.456 C 152.914 311.278,147.617 317.128,142.923 325.860 L 141.547 328.420 139.264 328.387 C 138.008 328.368,136.925 328.408,136.857 328.476 C 136.789 328.544,161.386 328.581,191.517 328.557 C 221.648 328.533,245.216 328.485,243.891 328.451 L 241.482 328.388 240.723 326.844 C 236.091 317.415,230.953 311.770,220.937 305.105 C 214.066 300.532,212.085 298.905,209.096 295.378 L 208.491 294.665 205.796 294.524 C 195.454 293.987,183.688 292.280,177.960 290.486 C 177.728 290.413,177.527 290.562,177.323 290.955 M214.300 295.000 C 214.842 295.550,215.330 296.000,215.385 296.000 C 215.440 296.000,215.042 295.550,214.500 295.000 C 213.958 294.450,213.470 294.000,213.415 294.000 C 213.360 294.000,213.758 294.450,214.300 295.000 M233.500 309.600 C 234.264 310.370,234.934 311.000,234.989 311.000 C 235.044 311.000,234.464 310.370,233.700 309.600 C 232.936 308.830,232.266 308.200,232.211 308.200 C 232.156 308.200,232.736 308.830,233.500 309.600 " stroke="none" fill="#515151" fill-rule="evenodd"></path><path id="path3" d="M175.963 110.314 C 170.047 111.201,164.586 113.330,164.133 114.926 C 163.829 115.999,164.282 116.548,166.915 118.299 C 168.241 119.181,169.621 120.151,169.981 120.453 L 170.635 121.004 168.268 120.852 C 157.901 120.187,146.247 120.853,141.802 122.364 L 140.783 122.710 138.842 121.757 C 129.467 117.155,118.195 119.604,109.687 128.093 C 101.507 136.254,98.269 148.392,100.128 163.929 L 100.251 164.957 98.675 164.575 C 93.167 163.239,92.492 163.676,91.713 169.085 C 91.104 173.313,91.441 172.769,89.277 173.008 C 82.252 173.786,82.084 173.926,82.264 178.862 C 82.505 185.488,84.035 192.716,86.225 197.578 C 86.988 199.274,87.038 199.160,85.047 200.302 C 82.539 201.740,82.556 201.978,85.613 208.600 C 101.750 243.556,135.083 271.974,173.242 283.308 C 176.292 284.214,176.126 283.985,175.221 286.027 C 172.876 291.320,169.674 294.628,161.200 300.509 C 151.207 307.445,147.298 311.225,142.316 318.768 C 140.175 322.009,137.200 327.507,137.200 328.222 C 137.200 328.320,138.180 328.400,139.379 328.400 L 141.558 328.400 142.928 325.850 C 147.617 317.128,152.918 311.276,161.400 305.456 C 171.246 298.700,174.027 296.158,177.500 290.738 C 177.678 290.460,177.971 290.489,180.200 291.009 C 189.348 293.145,195.487 293.988,205.796 294.524 L 208.491 294.665 209.096 295.378 C 212.085 298.905,214.066 300.532,220.937 305.105 C 230.955 311.772,236.090 317.414,240.726 326.850 L 241.488 328.400 243.744 328.400 C 244.985 328.400,246.000 328.351,246.000 328.290 C 246.000 327.522,242.247 320.719,240.047 317.500 C 235.523 310.880,231.532 307.107,223.358 301.721 C 216.231 297.026,213.797 294.946,211.620 291.692 L 210.555 290.100 218.727 289.981 C 246.025 289.585,267.965 281.792,287.411 265.586 C 305.359 250.628,317.600 227.915,317.600 209.571 C 317.600 205.332,316.918 204.615,313.985 205.768 C 311.398 206.785,311.449 206.791,311.304 205.450 C 310.923 201.925,310.445 200.097,309.521 198.633 C 308.759 197.426,308.327 197.379,304.500 198.089 C 303.620 198.252,302.435 198.389,301.866 198.393 L 300.832 198.400 300.236 196.550 C 296.146 183.859,290.245 172.527,284.797 166.900 L 283.054 165.100 282.599 163.200 C 279.487 150.193,274.729 138.939,270.389 134.322 C 268.699 132.524,268.062 132.556,265.899 134.550 C 264.006 136.294,264.407 136.291,262.491 134.575 C 246.774 120.502,229.983 112.303,216.535 112.137 L 213.569 112.100 212.985 112.753 C 212.214 113.614,212.244 114.135,213.183 116.244 L 213.959 117.988 213.330 117.710 C 212.983 117.557,211.665 116.962,210.400 116.389 C 204.293 113.621,197.480 111.536,191.100 110.483 C 188.277 110.017,178.660 109.909,175.963 110.314 M187.229 114.608 C 195.628 115.453,204.791 118.213,214.181 122.727 C 218.633 124.867,220.000 124.864,220.000 122.715 C 220.000 122.158,218.077 117.336,217.449 116.318 C 217.259 116.010,220.442 116.353,222.947 116.911 C 234.332 119.447,248.712 127.714,261.700 139.190 C 264.001 141.223,264.268 141.227,266.523 139.260 C 268.345 137.672,268.034 137.472,270.008 141.500 C 272.140 145.852,273.417 149.168,277.131 160.000 L 279.223 166.099 278.661 166.565 C 264.935 177.949,241.841 183.418,222.841 179.783 C 202.255 175.844,186.848 166.297,163.000 142.702 C 155.090 134.876,149.976 130.109,146.295 127.131 L 144.776 125.902 145.438 125.768 C 148.346 125.181,159.236 124.899,168.578 125.170 C 176.620 125.404,176.705 125.394,177.198 124.206 C 177.822 122.698,175.300 119.418,171.390 116.653 C 170.420 115.966,170.416 115.871,171.350 115.607 C 175.109 114.544,182.174 114.100,187.229 114.608 M135.293 124.886 C 138.448 125.831,139.669 126.628,145.100 131.281 C 149.215 134.806,153.426 138.809,161.400 146.775 C 180.972 166.328,193.978 175.270,211.200 181.013 C 235.017 188.955,260.777 184.966,280.063 170.347 L 281.625 169.163 282.312 169.931 C 287.521 175.760,292.790 186.238,296.820 198.777 C 298.066 202.655,299.032 202.980,306.029 201.871 L 306.757 201.756 306.995 202.828 C 307.125 203.418,307.275 205.025,307.328 206.400 C 307.444 209.432,307.490 209.682,308.032 210.187 C 308.778 210.882,310.785 210.916,313.150 210.275 C 314.662 209.865,312.657 220.777,309.918 227.866 C 295.456 265.284,255.236 288.540,209.742 285.792 C 159.541 282.759,115.085 255.160,92.203 212.820 C 89.157 207.185,87.313 202.926,87.850 202.767 C 90.332 202.035,90.651 201.897,91.107 201.355 C 91.816 200.513,91.728 199.876,90.586 197.590 C 88.170 192.759,86.200 184.396,86.200 178.978 C 86.200 177.155,85.819 177.353,90.200 176.899 C 93.597 176.546,94.182 176.395,94.573 175.769 C 94.767 175.458,95.782 169.157,95.798 168.163 C 95.801 167.950,97.068 168.195,99.770 168.929 C 104.121 170.111,104.744 169.810,104.525 166.630 C 103.903 157.595,103.963 154.025,104.818 148.990 C 107.678 132.152,121.929 120.880,135.293 124.886 M153.437 180.214 C 148.306 181.221,145.363 190.976,147.720 199.161 C 152.735 216.573,179.955 222.179,194.100 208.712 L 195.700 207.189 196.600 207.413 C 198.033 207.769,200.337 207.674,201.700 207.203 C 206.553 205.527,212.508 197.275,210.337 195.235 C 209.443 194.395,208.175 194.750,207.792 195.948 C 206.649 199.524,204.498 201.432,201.950 201.131 C 200.486 200.958,199.646 200.506,193.046 196.336 C 177.020 186.210,168.359 182.327,157.945 180.599 C 154.553 180.036,154.409 180.024,153.437 180.214 M157.225 184.819 C 158.586 185.050,159.730 185.268,159.768 185.303 C 159.805 185.339,159.467 186.118,159.016 187.034 C 154.812 195.589,158.842 205.637,167.420 207.991 C 175.946 210.330,183.904 206.771,187.209 199.141 C 187.479 198.517,187.775 198.005,187.866 198.003 C 188.144 197.998,194.800 202.042,194.800 202.217 C 194.800 202.759,191.355 206.284,189.400 207.741 C 177.589 216.548,156.234 211.432,152.113 198.809 C 150.466 193.764,151.276 186.742,153.728 184.814 C 154.370 184.309,154.208 184.308,157.225 184.819 M278.900 196.540 C 273.287 197.050,267.180 198.887,255.442 203.595 C 248.396 206.421,247.793 206.607,247.038 206.195 C 246.169 205.719,245.444 203.990,245.194 201.800 C 244.940 199.563,244.456 198.863,243.317 199.082 C 240.408 199.643,242.475 208.177,246.274 211.290 C 247.684 212.445,248.878 212.882,250.607 212.876 L 252.113 212.871 252.996 214.161 C 260.616 225.292,275.411 226.798,284.312 217.348 C 291.515 209.702,291.011 198.043,283.416 196.603 C 282.392 196.409,280.615 196.384,278.900 196.540 M283.402 200.724 C 286.095 201.802,286.217 206.959,283.665 211.851 C 279.331 220.158,266.407 222.603,259.600 216.403 C 258.827 215.700,258.785 215.624,259.300 215.870 C 264.250 218.233,270.716 216.324,272.984 211.832 C 274.132 209.558,274.696 204.843,274.140 202.165 L 273.988 201.430 275.444 201.110 C 278.899 200.351,282.083 200.197,283.402 200.724 M219.400 212.428 C 207.725 213.629,200.044 218.428,197.366 226.196 C 194.330 235.005,202.203 240.343,214.388 237.736 C 217.802 237.006,217.800 237.005,217.801 240.055 C 217.802 243.759,218.549 244.363,224.289 245.301 C 229.741 246.192,232.007 245.984,234.214 244.390 C 237.577 241.961,238.082 241.860,239.918 243.252 C 247.199 248.768,257.475 243.589,257.435 234.424 C 257.376 220.803,239.346 210.376,219.400 212.428 M227.200 216.812 C 231.591 217.670,233.754 219.660,232.699 221.870 C 231.853 223.641,229.679 224.220,223.378 224.348 C 215.229 224.515,212.000 223.708,212.000 221.505 C 212.000 217.685,219.626 215.331,227.200 216.812 M174.253 228.908 C 166.770 230.924,163.545 239.741,167.248 248.062 C 178.253 272.794,212.883 285.344,241.700 275.044 C 252.274 271.265,257.398 262.951,253.778 255.451 C 252.014 251.799,249.693 251.157,241.387 252.025 C 233.375 252.862,222.704 252.642,215.400 251.489 C 204.876 249.828,193.616 243.136,186.600 234.373 C 182.505 229.259,178.891 227.659,174.253 228.908 M181.731 233.344 C 181.968 233.540,182.698 234.380,183.353 235.211 C 191.466 245.511,203.086 252.587,215.009 254.488 C 222.199 255.634,233.862 255.877,241.631 255.043 C 246.437 254.527,247.600 254.491,247.600 254.855 C 247.600 255.793,245.286 259.723,243.848 261.229 C 241.675 263.503,241.804 263.484,240.604 261.706 C 239.202 259.629,238.165 259.427,237.107 261.025 C 236.501 261.940,233.056 265.400,232.750 265.400 C 232.644 265.400,231.735 264.654,230.729 263.741 C 227.069 260.422,227.024 260.408,225.282 262.109 C 223.565 263.785,220.181 265.833,219.206 265.785 C 219.038 265.777,218.090 264.741,217.100 263.482 C 213.510 258.918,213.566 258.951,211.289 260.101 C 209.891 260.807,204.997 262.800,204.661 262.800 C 204.562 262.800,203.727 261.270,202.806 259.400 C 200.576 254.872,200.902 255.091,197.582 255.895 C 193.467 256.891,188.225 257.015,185.810 256.173 L 185.200 255.961 185.200 250.771 C 185.200 244.999,185.144 244.704,183.938 244.131 C 183.159 243.762,180.940 243.209,180.200 243.200 C 179.214 243.188,179.175 243.055,179.483 240.788 C 179.639 239.640,179.877 237.287,180.011 235.559 L 180.255 232.418 180.777 232.703 C 181.065 232.859,181.494 233.148,181.731 233.344 M179.500 246.104 C 180.600 246.269,181.658 246.455,181.850 246.516 C 182.172 246.618,182.200 247.058,182.200 251.997 C 182.200 257.931,182.193 257.883,183.063 258.333 C 185.994 259.848,192.060 260.132,197.259 258.998 C 198.255 258.780,199.098 258.631,199.132 258.666 C 199.167 258.700,199.952 260.301,200.877 262.222 C 202.765 266.146,202.882 266.295,203.970 266.149 C 204.544 266.072,210.777 263.690,212.514 262.884 C 212.632 262.829,213.752 264.071,215.003 265.642 C 216.254 267.214,217.412 268.613,217.577 268.750 C 218.556 269.567,222.899 267.925,225.735 265.665 C 227.380 264.354,226.901 264.214,229.637 266.800 C 232.627 269.626,232.604 269.623,235.102 267.396 C 236.091 266.514,237.266 265.387,237.714 264.892 L 238.528 263.992 239.865 265.746 C 240.600 266.711,241.834 268.240,242.606 269.143 L 244.010 270.787 243.255 271.171 C 242.840 271.382,241.724 271.829,240.775 272.163 C 214.811 281.314,183.293 271.294,171.777 250.227 L 171.300 249.353 172.200 248.573 C 173.569 247.387,174.452 246.816,175.733 246.289 C 177.122 245.718,176.986 245.725,179.500 246.104 " stroke="none" fill="#141414" fill-rule="evenodd"></path><path id="path4" d="M99.052 120.932 C 98.871 121.005,98.859 121.137,99.009 121.416 C 99.220 121.812,99.800 121.951,99.800 121.606 C 99.800 121.500,99.651 121.470,99.468 121.540 C 99.204 121.641,99.159 121.578,99.249 121.234 C 99.312 120.995,99.348 120.807,99.331 120.816 C 99.314 120.824,99.188 120.877,99.052 120.932 M100.118 121.815 C 99.833 122.154,99.600 122.324,99.600 122.194 C 99.600 122.039,99.421 122.002,99.083 122.086 C 98.748 122.170,98.612 122.143,98.695 122.008 C 98.766 121.894,98.706 121.799,98.562 121.797 C 98.370 121.795,98.380 121.739,98.600 121.589 C 98.848 121.419,98.833 121.393,98.509 121.442 C 98.293 121.474,97.939 121.674,97.721 121.888 C 97.458 122.145,97.298 122.195,97.246 122.038 C 97.202 121.907,97.017 121.794,96.833 121.786 C 96.567 121.775,96.581 121.737,96.900 121.600 C 97.264 121.444,97.254 121.427,96.790 121.414 C 96.153 121.396,95.807 121.730,95.777 122.390 C 95.761 122.733,95.724 122.785,95.662 122.548 C 95.608 122.342,95.472 122.254,95.335 122.336 C 95.204 122.415,95.221 122.327,95.374 122.138 C 95.609 121.849,95.606 121.800,95.348 121.800 C 95.096 121.800,94.854 122.203,94.727 122.833 C 94.712 122.907,94.635 123.031,94.556 123.110 C 94.392 123.275,94.514 122.500,94.700 122.199 C 94.768 122.090,94.725 122.000,94.605 122.000 C 94.359 122.000,93.998 122.817,94.138 123.055 C 94.189 123.140,94.117 123.185,93.978 123.155 C 93.840 123.125,93.594 123.370,93.432 123.700 C 93.271 124.030,93.074 124.345,92.996 124.400 C 92.918 124.455,92.791 124.703,92.713 124.950 C 92.636 125.197,92.484 125.400,92.375 125.400 C 92.266 125.400,92.232 125.490,92.300 125.600 C 92.368 125.710,92.328 125.800,92.212 125.800 C 92.095 125.800,92.000 125.935,92.000 126.100 C 92.000 126.265,91.916 126.400,91.813 126.400 C 91.711 126.400,91.569 126.582,91.498 126.805 C 91.428 127.028,91.129 127.578,90.835 128.027 C 90.541 128.477,90.330 128.892,90.367 128.950 C 90.404 129.008,90.359 129.110,90.267 129.178 C 90.055 129.333,88.400 131.741,88.400 131.895 C 88.400 131.957,88.188 132.344,87.929 132.754 C 86.001 135.807,85.400 136.795,85.400 136.906 C 85.400 136.977,85.137 137.409,84.816 137.867 C 82.453 141.239,48.525 197.750,48.542 198.287 C 48.555 198.716,53.291 207.025,64.340 226.000 C 73.018 240.905,89.962 270.006,101.993 290.668 C 118.846 319.610,123.980 328.278,124.355 328.421 C 124.626 328.524,127.509 328.582,130.861 328.553 L 136.880 328.500 138.504 325.264 C 139.397 323.484,140.227 321.909,140.347 321.764 C 140.528 321.546,139.473 321.510,134.324 321.555 L 128.082 321.611 111.957 293.955 C 103.089 278.745,86.917 251.006,76.019 232.312 L 56.205 198.325 56.568 197.712 C 56.958 197.053,93.675 136.370,97.141 130.655 C 98.290 128.761,99.173 127.118,99.103 127.005 C 99.034 126.892,99.094 126.796,99.238 126.792 C 99.525 126.783,102.489 122.000,102.207 122.000 C 102.112 122.000,101.993 122.113,101.944 122.250 C 101.895 122.388,101.785 122.435,101.699 122.355 C 101.613 122.275,101.641 122.092,101.760 121.948 C 101.930 121.743,101.861 121.687,101.439 121.693 C 101.021 121.698,100.855 121.834,100.700 122.300 C 100.491 122.926,100.148 122.953,100.056 122.350 C 100.027 122.158,100.126 122.000,100.278 122.000 C 100.429 122.000,100.600 121.820,100.658 121.600 C 100.798 121.064,100.726 121.093,100.118 121.815 M300.600 121.388 C 300.600 121.528,300.476 121.595,300.324 121.537 C 300.173 121.479,299.948 121.532,299.824 121.656 C 299.659 121.821,299.600 121.811,299.600 121.616 C 299.600 121.398,299.543 121.398,299.277 121.619 C 299.099 121.766,298.807 121.897,298.627 121.909 C 297.484 121.987,297.511 121.971,297.869 122.366 C 298.051 122.567,298.200 122.837,298.200 122.966 C 298.200 123.095,298.290 123.200,298.400 123.200 C 298.510 123.200,298.600 123.285,298.600 123.389 C 298.600 123.600,301.126 127.819,301.355 127.991 C 301.435 128.051,301.520 128.204,301.544 128.331 C 301.568 128.459,302.342 129.809,303.264 131.331 C 304.187 132.854,308.209 139.500,312.203 146.100 C 316.198 152.700,323.469 164.715,328.363 172.800 C 345.163 200.559,343.797 198.231,343.556 198.688 C 343.388 199.005,277.270 312.450,272.880 319.953 L 271.913 321.605 257.307 321.553 L 242.700 321.500 244.496 325.050 L 246.293 328.600 260.733 328.600 C 268.994 328.600,275.380 328.522,275.656 328.417 C 276.019 328.279,278.123 324.823,284.210 314.367 C 288.650 306.740,294.275 297.080,296.709 292.900 C 299.143 288.720,303.387 281.430,306.141 276.700 C 308.895 271.970,319.268 254.154,329.192 237.109 C 339.116 220.064,347.595 205.439,348.034 204.609 C 348.473 203.779,348.948 202.965,349.089 202.800 C 349.804 201.963,351.444 198.848,351.460 198.296 C 351.473 197.811,347.944 191.849,335.298 170.988 C 316.633 140.198,315.007 137.519,314.600 136.895 C 314.435 136.642,314.009 135.937,313.654 135.328 C 313.299 134.719,312.671 133.698,312.259 133.060 C 311.847 132.422,311.507 131.855,311.504 131.800 C 311.495 131.660,310.548 130.122,310.396 130.000 C 310.327 129.945,310.045 129.517,309.769 129.049 C 309.493 128.582,309.193 128.267,309.102 128.349 C 309.011 128.432,308.996 128.396,309.069 128.268 C 309.258 127.937,309.010 127.400,308.667 127.400 C 308.507 127.400,308.433 127.309,308.501 127.198 C 308.570 127.087,308.359 126.601,308.032 126.117 C 307.706 125.633,307.382 125.057,307.312 124.837 C 307.242 124.617,307.053 124.386,306.892 124.325 C 306.732 124.263,306.600 124.030,306.600 123.806 C 306.600 123.583,306.510 123.400,306.400 123.400 C 306.290 123.400,306.200 123.260,306.200 123.088 C 306.200 122.917,306.110 122.832,306.000 122.900 C 305.825 123.008,305.719 122.767,305.768 122.374 C 305.777 122.304,305.613 122.093,305.405 121.904 C 304.955 121.498,304.534 121.678,304.702 122.205 C 304.790 122.485,304.724 122.569,304.432 122.547 C 304.210 122.531,304.085 122.411,304.140 122.267 C 304.206 122.097,304.089 122.044,303.778 122.104 C 303.269 122.202,302.885 121.797,303.261 121.558 C 303.445 121.441,303.445 121.405,303.257 121.403 C 302.969 121.399,302.558 122.092,302.740 122.274 C 302.986 122.519,302.580 122.396,302.095 122.078 C 301.824 121.901,301.641 121.695,301.688 121.620 C 301.734 121.545,301.600 121.470,301.390 121.454 C 301.022 121.427,301.021 121.446,301.354 121.955 C 301.544 122.246,301.588 122.415,301.450 122.330 C 301.302 122.239,301.200 122.277,301.200 122.422 C 301.200 122.556,301.141 122.608,301.070 122.536 C 300.998 122.465,300.823 122.562,300.680 122.753 C 300.445 123.067,300.431 123.057,300.533 122.650 C 300.596 122.403,300.786 122.200,300.957 122.200 C 301.127 122.200,301.213 122.147,301.148 122.082 C 300.946 121.879,300.186 122.216,300.328 122.445 C 300.408 122.574,300.368 122.604,300.231 122.519 C 299.892 122.309,299.936 121.588,300.280 121.720 C 300.574 121.833,300.926 121.460,300.720 121.253 C 300.654 121.187,300.600 121.248,300.600 121.388 M304.400 121.355 C 304.400 121.477,304.220 121.542,304.000 121.500 C 303.486 121.401,303.475 121.721,303.987 121.855 C 304.354 121.950,304.748 121.481,304.505 121.238 C 304.447 121.180,304.400 121.233,304.400 121.355 M96.585 122.055 C 96.825 122.368,96.814 122.393,96.495 122.271 C 96.228 122.168,96.177 122.200,96.298 122.397 C 96.402 122.565,96.384 122.614,96.249 122.530 C 96.132 122.458,96.066 122.241,96.103 122.049 C 96.139 121.857,96.176 121.663,96.185 121.617 C 96.193 121.571,96.225 121.571,96.257 121.617 C 96.288 121.663,96.435 121.860,96.585 122.055 M98.240 122.153 C 98.108 122.197,98.000 122.376,98.000 122.550 C 98.000 122.724,97.947 122.813,97.882 122.748 C 97.672 122.539,98.017 121.787,98.255 121.934 C 98.419 122.035,98.415 122.095,98.240 122.153 M299.708 122.187 C 299.644 122.290,299.420 122.362,299.210 122.346 C 298.712 122.308,298.902 122.000,299.424 122.000 C 299.644 122.000,299.772 122.084,299.708 122.187 M114.800 249.263 C 114.800 249.297,115.093 249.590,115.450 249.913 L 116.100 250.500 115.513 249.850 C 114.965 249.244,114.800 249.108,114.800 249.263 M293.594 259.950 L 292.300 261.300 293.650 260.006 C 294.904 258.804,295.091 258.600,294.944 258.600 C 294.914 258.600,294.306 259.207,293.594 259.950 M211.853 290.144 C 212.157 290.189,212.607 290.188,212.853 290.141 C 213.099 290.093,212.850 290.056,212.300 290.057 C 211.750 290.059,211.549 290.098,211.853 290.144 M221.653 290.144 C 221.957 290.189,222.407 290.188,222.653 290.141 C 222.899 290.093,222.650 290.056,222.100 290.057 C 221.550 290.059,221.349 290.098,221.653 290.144 M149.696 309.450 L 147.700 311.500 149.750 309.504 C 150.878 308.406,151.800 307.483,151.800 307.454 C 151.800 307.309,151.550 307.546,149.696 309.450 " stroke="none" fill="#cc3c04" fill-rule="evenodd"></path></g></svg>